<svg width="16" height="26" viewBox="0 0 16 26" fill="none" xmlns="http://www.w3.org/2000/svg">
<path d="M1.27495 13.7135L13.3007 25.706C13.6947 26.0987 14.3326 26.098 14.726 25.704C15.119 25.3099 15.118 24.6717 14.724 24.2787L3.414 13L14.7244 1.72128C15.1184 1.32823 15.1194 0.690372 14.7264 0.296312C14.5292 0.098774 14.2709 3.8147e-06 14.0126 3.8147e-06C13.7549 3.8147e-06 13.4976 0.0981121 13.3008 0.294279L1.27495 12.2865C1.08518 12.4753 0.978694 12.7322 0.978694 13C0.978694 13.2677 1.08549 13.5243 1.27495 13.7135Z" fill="black"/>
<path d="M1.27495 13.7135L13.3007 25.706C13.6947 26.0987 14.3326 26.098 14.726 25.704C15.119 25.3099 15.118 24.6717 14.724 24.2787L3.414 13L14.7244 1.72128C15.1184 1.32823 15.1194 0.690372 14.7264 0.296312C14.5292 0.098774 14.2709 3.8147e-06 14.0126 3.8147e-06C13.7549 3.8147e-06 13.4976 0.0981121 13.3008 0.294279L1.27495 12.2865C1.08518 12.4753 0.978694 12.7322 0.978694 13C0.978694 13.2677 1.08549 13.5243 1.27495 13.7135Z" fill="url(#paint0_linear)"/>
<defs>
<linearGradient id="paint0_linear" x1="7.9996" y1="26" x2="7.9996" y2="3.8147e-06" gradientUnits="userSpaceOnUse">
<stop stop-color="#59F37B"/>
<stop offset="1" stop-color="#08D8F4"/>
</linearGradient>
</defs>
</svg>
