<svg width="16" height="26" viewBox="0 0 16 26" fill="none" xmlns="http://www.w3.org/2000/svg">
<path d="M14.725 13.7135L2.69928 25.706C2.30527 26.0987 1.66736 26.098 1.27401 25.704C0.880966 25.3099 0.881981 24.6717 1.27604 24.2787L12.586 13L1.27564 1.72128C0.881626 1.32823 0.88061 0.690372 1.2736 0.296312C1.47079 0.098774 1.72911 3.8147e-06 1.98743 3.8147e-06C2.2451 3.8147e-06 2.5024 0.0981121 2.69923 0.294279L14.725 12.2865C14.9148 12.4753 15.0213 12.7322 15.0213 13C15.0213 13.2677 14.9145 13.5243 14.725 13.7135Z" fill="black"/>
<path d="M14.725 13.7135L2.69928 25.706C2.30527 26.0987 1.66736 26.098 1.27401 25.704C0.880966 25.3099 0.881981 24.6717 1.27604 24.2787L12.586 13L1.27564 1.72128C0.881626 1.32823 0.88061 0.690372 1.2736 0.296312C1.47079 0.098774 1.72911 3.8147e-06 1.98743 3.8147e-06C2.2451 3.8147e-06 2.5024 0.0981121 2.69923 0.294279L14.725 12.2865C14.9148 12.4753 15.0213 12.7322 15.0213 13C15.0213 13.2677 14.9145 13.5243 14.725 13.7135Z" fill="url(#paint0_linear)"/>
<defs>
<linearGradient id="paint0_linear" x1="8.0004" y1="26" x2="8.0004" y2="3.8147e-06" gradientUnits="userSpaceOnUse">
<stop stop-color="#59F37B"/>
<stop offset="1" stop-color="#08D8F4"/>
</linearGradient>
</defs>
</svg>
