<svg width="48" height="48" viewBox="0 0 48 48" fill="none" xmlns="http://www.w3.org/2000/svg">
<g clip-path="url(#clip0)">
<path d="M45.0424 7.51511H2.95763C1.32675 7.51511 0 8.84195 0 10.4728V37.5272C0 39.1581 1.32675 40.4849 2.95763 40.4849H45.0423C46.6732 40.4849 47.9999 39.1581 47.9999 37.5272V10.4728C48 8.84195 46.6733 7.51511 45.0424 7.51511ZM46.5938 37.5272C46.5938 38.3827 45.8978 39.0787 45.0424 39.0787H2.95763C2.10216 39.0787 1.40625 38.3827 1.40625 37.5272V10.4728C1.40625 9.61736 2.10216 8.92136 2.95763 8.92136H45.0423C45.8978 8.92136 46.5937 9.61736 46.5937 10.4728V37.5272H46.5938Z" fill="black"/>
<path d="M45.0424 7.51511H2.95763C1.32675 7.51511 0 8.84195 0 10.4728V37.5272C0 39.1581 1.32675 40.4849 2.95763 40.4849H45.0423C46.6732 40.4849 47.9999 39.1581 47.9999 37.5272V10.4728C48 8.84195 46.6733 7.51511 45.0424 7.51511ZM46.5938 37.5272C46.5938 38.3827 45.8978 39.0787 45.0424 39.0787H2.95763C2.10216 39.0787 1.40625 38.3827 1.40625 37.5272V10.4728C1.40625 9.61736 2.10216 8.92136 2.95763 8.92136H45.0423C45.8978 8.92136 46.5937 9.61736 46.5937 10.4728V37.5272H46.5938Z" fill="url(#paint0_linear)"/>
<path d="M11.2241 10.5212C6.69258 10.5212 3.00586 14.2079 3.00586 18.7395C3.00586 23.2711 6.69258 26.9577 11.2241 26.9577C15.7557 26.9577 19.4424 23.271 19.4424 18.7395C19.4424 14.208 15.7557 10.5212 11.2241 10.5212ZM11.2241 25.5514C7.46798 25.5514 4.41211 22.4955 4.41211 18.7394C4.41211 14.9832 7.46798 11.9273 11.2241 11.9273C14.9803 11.9273 18.0361 14.9832 18.0361 18.7394C18.036 22.4956 14.9803 25.5514 11.2241 25.5514Z" fill="black"/>
<path d="M11.2241 10.5212C6.69258 10.5212 3.00586 14.2079 3.00586 18.7395C3.00586 23.2711 6.69258 26.9577 11.2241 26.9577C15.7557 26.9577 19.4424 23.271 19.4424 18.7395C19.4424 14.208 15.7557 10.5212 11.2241 10.5212ZM11.2241 25.5514C7.46798 25.5514 4.41211 22.4955 4.41211 18.7394C4.41211 14.9832 7.46798 11.9273 11.2241 11.9273C14.9803 11.9273 18.0361 14.9832 18.0361 18.7394C18.036 22.4956 14.9803 25.5514 11.2241 25.5514Z" fill="url(#paint1_linear)"/>
<path d="M36.7759 10.5212C32.2443 10.5212 28.5576 14.2079 28.5576 18.7395C28.5576 23.2711 32.2443 26.9577 36.7759 26.9577C41.3074 26.9577 44.9942 23.271 44.9942 18.7395C44.9942 14.208 41.3075 10.5212 36.7759 10.5212ZM36.7759 25.5514C33.0197 25.5514 29.9639 22.4955 29.9639 18.7394C29.9639 14.9832 33.0197 11.9273 36.7759 11.9273C40.532 11.9273 43.5879 14.9832 43.5879 18.7394C43.588 22.4956 40.5321 25.5514 36.7759 25.5514Z" fill="black"/>
<path d="M36.7759 10.5212C32.2443 10.5212 28.5576 14.2079 28.5576 18.7395C28.5576 23.2711 32.2443 26.9577 36.7759 26.9577C41.3074 26.9577 44.9942 23.271 44.9942 18.7395C44.9942 14.208 41.3075 10.5212 36.7759 10.5212ZM36.7759 25.5514C33.0197 25.5514 29.9639 22.4955 29.9639 18.7394C29.9639 14.9832 33.0197 11.9273 36.7759 11.9273C40.532 11.9273 43.5879 14.9832 43.5879 18.7394C43.588 22.4956 40.5321 25.5514 36.7759 25.5514Z" fill="url(#paint2_linear)"/>
<path d="M17.2366 28.5575H5.21244C4.41031 28.5575 3.75781 29.21 3.75781 30.0121V35.2727C3.75781 36.0748 4.41031 36.7273 5.21244 36.7273H17.2366C18.0387 36.7273 18.6912 36.0748 18.6912 35.2727V30.0121C18.6912 29.21 18.0387 28.5575 17.2366 28.5575ZM12.7759 29.9637V35.3211H9.67306V29.9637H12.7759ZM5.16406 35.2727V30.0121C5.16406 29.9855 5.18572 29.9637 5.21244 29.9637H8.26691V35.3211H5.21244C5.18572 35.3211 5.16406 35.2993 5.16406 35.2727ZM17.285 35.2727C17.285 35.2993 17.2633 35.3211 17.2366 35.3211H14.1822V29.9637H17.2366C17.2633 29.9637 17.285 29.9855 17.285 30.0121V35.2727Z" fill="black"/>
<path d="M17.2366 28.5575H5.21244C4.41031 28.5575 3.75781 29.21 3.75781 30.0121V35.2727C3.75781 36.0748 4.41031 36.7273 5.21244 36.7273H17.2366C18.0387 36.7273 18.6912 36.0748 18.6912 35.2727V30.0121C18.6912 29.21 18.0387 28.5575 17.2366 28.5575ZM12.7759 29.9637V35.3211H9.67306V29.9637H12.7759ZM5.16406 35.2727V30.0121C5.16406 29.9855 5.18572 29.9637 5.21244 29.9637H8.26691V35.3211H5.21244C5.18572 35.3211 5.16406 35.2993 5.16406 35.2727ZM17.285 35.2727C17.285 35.2993 17.2633 35.3211 17.2366 35.3211H14.1822V29.9637H17.2366C17.2633 29.9637 17.285 29.9855 17.285 30.0121V35.2727Z" fill="url(#paint3_linear)"/>
<path d="M42.7874 28.5575H30.7632C29.9611 28.5575 29.3086 29.21 29.3086 30.0121V35.2727C29.3086 36.0748 29.9611 36.7273 30.7632 36.7273H42.7874C43.5895 36.7273 44.242 36.0748 44.242 35.2727V30.0121C44.242 29.21 43.5895 28.5575 42.7874 28.5575ZM38.3268 29.9637V35.3211H35.2239V29.9637H38.3268ZM30.7148 35.2727V30.0121C30.7148 29.9855 30.7365 29.9637 30.7632 29.9637H33.8177V35.3211H30.7632C30.7365 35.3211 30.7148 35.2993 30.7148 35.2727ZM42.8358 35.2727C42.8358 35.2993 42.8141 35.3211 42.7874 35.3211H39.7329V29.9637H42.7874C42.8141 29.9637 42.8358 29.9855 42.8358 30.0121V35.2727Z" fill="black"/>
<path d="M42.7874 28.5575H30.7632C29.9611 28.5575 29.3086 29.21 29.3086 30.0121V35.2727C29.3086 36.0748 29.9611 36.7273 30.7632 36.7273H42.7874C43.5895 36.7273 44.242 36.0748 44.242 35.2727V30.0121C44.242 29.21 43.5895 28.5575 42.7874 28.5575ZM38.3268 29.9637V35.3211H35.2239V29.9637H38.3268ZM30.7148 35.2727V30.0121C30.7148 29.9855 30.7365 29.9637 30.7632 29.9637H33.8177V35.3211H30.7632C30.7365 35.3211 30.7148 35.2993 30.7148 35.2727ZM42.8358 35.2727C42.8358 35.2993 42.8141 35.3211 42.7874 35.3211H39.7329V29.9637H42.7874C42.8141 29.9637 42.8358 29.9855 42.8358 30.0121V35.2727Z" fill="url(#paint4_linear)"/>
<path d="M13.9608 17.3067C13.5848 17.4035 13.3584 17.7868 13.4552 18.1629C13.5033 18.35 13.5277 18.5439 13.5277 18.7394C13.5277 20.0092 12.4946 21.0423 11.2247 21.0423C9.95491 21.0423 8.92187 20.0092 8.92187 18.7394C8.92187 17.4696 9.955 16.4364 11.2247 16.4364C11.4202 16.4364 11.6142 16.4609 11.8012 16.509C12.1773 16.6056 12.5606 16.3794 12.6574 16.0033C12.7543 15.6273 12.5279 15.2439 12.1517 15.1472C11.8502 15.0696 11.5383 15.0302 11.2247 15.0302C9.1795 15.0302 7.51562 16.6941 7.51562 18.7394C7.51562 20.7846 9.17959 22.4485 11.2247 22.4485C13.27 22.4485 14.934 20.7846 14.934 18.7394C14.934 18.4258 14.8946 18.1139 14.817 17.8124C14.7202 17.4363 14.3367 17.21 13.9608 17.3067Z" fill="black"/>
<path d="M13.9608 17.3067C13.5848 17.4035 13.3584 17.7868 13.4552 18.1629C13.5033 18.35 13.5277 18.5439 13.5277 18.7394C13.5277 20.0092 12.4946 21.0423 11.2247 21.0423C9.95491 21.0423 8.92187 20.0092 8.92187 18.7394C8.92187 17.4696 9.955 16.4364 11.2247 16.4364C11.4202 16.4364 11.6142 16.4609 11.8012 16.509C12.1773 16.6056 12.5606 16.3794 12.6574 16.0033C12.7543 15.6273 12.5279 15.2439 12.1517 15.1472C11.8502 15.0696 11.5383 15.0302 11.2247 15.0302C9.1795 15.0302 7.51562 16.6941 7.51562 18.7394C7.51562 20.7846 9.17959 22.4485 11.2247 22.4485C13.27 22.4485 14.934 20.7846 14.934 18.7394C14.934 18.4258 14.8946 18.1139 14.817 17.8124C14.7202 17.4363 14.3367 17.21 13.9608 17.3067Z" fill="url(#paint5_linear)"/>
<path d="M39.5117 17.3067C39.1357 17.4035 38.9093 17.7868 39.006 18.1629C39.0542 18.35 39.0786 18.5439 39.0786 18.7394C39.0786 20.0092 38.0455 21.0423 36.7757 21.0423C35.506 21.0423 34.4728 20.0092 34.4728 18.7394C34.4728 17.4696 35.5059 16.4364 36.7757 16.4364C36.9711 16.4364 37.1651 16.4609 37.3521 16.509C37.7282 16.6056 38.1115 16.3794 38.2083 16.0033C38.3052 15.6273 38.0787 15.2439 37.7026 15.1472C37.4011 15.0696 37.0892 15.0302 36.7756 15.0302C34.7304 15.0302 33.0664 16.6941 33.0664 18.7394C33.0664 20.7846 34.7304 22.4485 36.7756 22.4485C38.8209 22.4485 40.4847 20.7846 40.4847 18.7394C40.4847 18.4258 40.4454 18.1139 40.3677 17.8124C40.2712 17.4363 39.8876 17.21 39.5117 17.3067Z" fill="black"/>
<path d="M39.5117 17.3067C39.1357 17.4035 38.9093 17.7868 39.006 18.1629C39.0542 18.35 39.0786 18.5439 39.0786 18.7394C39.0786 20.0092 38.0455 21.0423 36.7757 21.0423C35.506 21.0423 34.4728 20.0092 34.4728 18.7394C34.4728 17.4696 35.5059 16.4364 36.7757 16.4364C36.9711 16.4364 37.1651 16.4609 37.3521 16.509C37.7282 16.6056 38.1115 16.3794 38.2083 16.0033C38.3052 15.6273 38.0787 15.2439 37.7026 15.1472C37.4011 15.0696 37.0892 15.0302 36.7756 15.0302C34.7304 15.0302 33.0664 16.6941 33.0664 18.7394C33.0664 20.7846 34.7304 22.4485 36.7756 22.4485C38.8209 22.4485 40.4847 20.7846 40.4847 18.7394C40.4847 18.4258 40.4454 18.1139 40.3677 17.8124C40.2712 17.4363 39.8876 17.21 39.5117 17.3067Z" fill="url(#paint6_linear)"/>
<path d="M22.4971 13.5274C22.1088 13.5274 21.7939 13.8421 21.7939 14.2305V14.982C21.7939 15.3703 22.1088 15.6851 22.4971 15.6851C22.8854 15.6851 23.2002 15.3703 23.2002 14.982V14.2305C23.2002 13.8421 22.8854 13.5274 22.4971 13.5274Z" fill="black"/>
<path d="M22.4971 13.5274C22.1088 13.5274 21.7939 13.8421 21.7939 14.2305V14.982C21.7939 15.3703 22.1088 15.6851 22.4971 15.6851C22.8854 15.6851 23.2002 15.3703 23.2002 14.982V14.2305C23.2002 13.8421 22.8854 13.5274 22.4971 13.5274Z" fill="url(#paint7_linear)"/>
<path d="M25.5029 13.5274C25.1146 13.5274 24.7998 13.8421 24.7998 14.2305V14.982C24.7998 15.3703 25.1146 15.6851 25.5029 15.6851C25.8912 15.6851 26.2061 15.3703 26.2061 14.982V14.2305C26.2061 13.8421 25.8912 13.5274 25.5029 13.5274Z" fill="black"/>
<path d="M25.5029 13.5274C25.1146 13.5274 24.7998 13.8421 24.7998 14.2305V14.982C24.7998 15.3703 25.1146 15.6851 25.5029 15.6851C25.8912 15.6851 26.2061 15.3703 26.2061 14.982V14.2305C26.2061 13.8421 25.8912 13.5274 25.5029 13.5274Z" fill="url(#paint8_linear)"/>
<path d="M22.4971 20.194C22.8854 20.194 23.2002 19.8792 23.2002 19.4909V17.9879C23.2002 17.5995 22.8854 17.2848 22.4971 17.2848C22.1088 17.2848 21.7939 17.5995 21.7939 17.9879V19.4909C21.7939 19.8792 22.1088 20.194 22.4971 20.194Z" fill="black"/>
<path d="M22.4971 20.194C22.8854 20.194 23.2002 19.8792 23.2002 19.4909V17.9879C23.2002 17.5995 22.8854 17.2848 22.4971 17.2848C22.1088 17.2848 21.7939 17.5995 21.7939 17.9879V19.4909C21.7939 19.8792 22.1088 20.194 22.4971 20.194Z" fill="url(#paint9_linear)"/>
<path d="M25.5029 20.194C25.8912 20.194 26.2061 19.8792 26.2061 19.4909V17.9879C26.2061 17.5995 25.8912 17.2848 25.5029 17.2848C25.1146 17.2848 24.7998 17.5995 24.7998 17.9879V19.4909C24.7998 19.8792 25.1146 20.194 25.5029 20.194Z" fill="black"/>
<path d="M25.5029 20.194C25.8912 20.194 26.2061 19.8792 26.2061 19.4909V17.9879C26.2061 17.5995 25.8912 17.2848 25.5029 17.2848C25.1146 17.2848 24.7998 17.5995 24.7998 17.9879V19.4909C24.7998 19.8792 25.1146 20.194 25.5029 20.194Z" fill="url(#paint10_linear)"/>
<path d="M22.4971 21.794C22.1088 21.794 21.7939 22.1087 21.7939 22.4971V23.2486C21.7939 23.6369 22.1088 23.9517 22.4971 23.9517C22.8854 23.9517 23.2002 23.6369 23.2002 23.2486V22.4971C23.2002 22.1087 22.8854 21.794 22.4971 21.794Z" fill="black"/>
<path d="M22.4971 21.794C22.1088 21.794 21.7939 22.1087 21.7939 22.4971V23.2486C21.7939 23.6369 22.1088 23.9517 22.4971 23.9517C22.8854 23.9517 23.2002 23.6369 23.2002 23.2486V22.4971C23.2002 22.1087 22.8854 21.794 22.4971 21.794Z" fill="url(#paint11_linear)"/>
<path d="M25.5029 21.794C25.1146 21.794 24.7998 22.1087 24.7998 22.4971V23.2486C24.7998 23.6369 25.1146 23.9517 25.5029 23.9517C25.8912 23.9517 26.2061 23.6369 26.2061 23.2486V22.4971C26.2061 22.1087 25.8912 21.794 25.5029 21.794Z" fill="black"/>
<path d="M25.5029 21.794C25.1146 21.794 24.7998 22.1087 24.7998 22.4971V23.2486C24.7998 23.6369 25.1146 23.9517 25.5029 23.9517C25.8912 23.9517 26.2061 23.6369 26.2061 23.2486V22.4971C26.2061 22.1087 25.8912 21.794 25.5029 21.794Z" fill="url(#paint12_linear)"/>
<path d="M22.4971 29.309C22.1088 29.309 21.7939 29.6238 21.7939 30.0121V35.2727C21.7939 35.661 22.1088 35.9758 22.4971 35.9758C22.8854 35.9758 23.2002 35.661 23.2002 35.2727V30.0121C23.2002 29.6238 22.8854 29.309 22.4971 29.309Z" fill="black"/>
<path d="M22.4971 29.309C22.1088 29.309 21.7939 29.6238 21.7939 30.0121V35.2727C21.7939 35.661 22.1088 35.9758 22.4971 35.9758C22.8854 35.9758 23.2002 35.661 23.2002 35.2727V30.0121C23.2002 29.6238 22.8854 29.309 22.4971 29.309Z" fill="url(#paint13_linear)"/>
<path d="M25.5029 29.309C25.1146 29.309 24.7998 29.6238 24.7998 30.0121V35.2727C24.7998 35.661 25.1146 35.9758 25.5029 35.9758C25.8912 35.9758 26.2061 35.661 26.2061 35.2727V30.0121C26.2061 29.6238 25.8912 29.309 25.5029 29.309Z" fill="black"/>
<path d="M25.5029 29.309C25.1146 29.309 24.7998 29.6238 24.7998 30.0121V35.2727C24.7998 35.661 25.1146 35.9758 25.5029 35.9758C25.8912 35.9758 26.2061 35.661 26.2061 35.2727V30.0121C26.2061 29.6238 25.8912 29.309 25.5029 29.309Z" fill="url(#paint14_linear)"/>
</g>
<defs>
<linearGradient id="paint0_linear" x1="24" y1="16.8327" x2="27.2185" y2="34.2228" gradientUnits="userSpaceOnUse">
<stop stop-color="#59F37B"/>
<stop offset="1" stop-color="#08D8F4"/>
</linearGradient>
<linearGradient id="paint1_linear" x1="11.2241" y1="15.1663" x2="13.4766" y2="23.5259" gradientUnits="userSpaceOnUse">
<stop stop-color="#59F37B"/>
<stop offset="1" stop-color="#08D8F4"/>
</linearGradient>
<linearGradient id="paint2_linear" x1="36.7759" y1="15.1663" x2="39.0284" y2="23.5259" gradientUnits="userSpaceOnUse">
<stop stop-color="#59F37B"/>
<stop offset="1" stop-color="#08D8F4"/>
</linearGradient>
<linearGradient id="paint3_linear" x1="11.2245" y1="30.8663" x2="11.8676" y2="35.2284" gradientUnits="userSpaceOnUse">
<stop stop-color="#59F37B"/>
<stop offset="1" stop-color="#08D8F4"/>
</linearGradient>
<linearGradient id="paint4_linear" x1="36.7753" y1="30.8663" x2="37.4183" y2="35.2284" gradientUnits="userSpaceOnUse">
<stop stop-color="#59F37B"/>
<stop offset="1" stop-color="#08D8F4"/>
</linearGradient>
<linearGradient id="paint5_linear" x1="11.2248" y1="17.1267" x2="12.2414" y2="20.8996" gradientUnits="userSpaceOnUse">
<stop stop-color="#59F37B"/>
<stop offset="1" stop-color="#08D8F4"/>
</linearGradient>
<linearGradient id="paint6_linear" x1="36.7756" y1="17.1267" x2="37.7922" y2="20.8996" gradientUnits="userSpaceOnUse">
<stop stop-color="#59F37B"/>
<stop offset="1" stop-color="#08D8F4"/>
</linearGradient>
<linearGradient id="paint7_linear" x1="22.4971" y1="14.1372" x2="22.9127" y2="15.1424" gradientUnits="userSpaceOnUse">
<stop stop-color="#59F37B"/>
<stop offset="1" stop-color="#08D8F4"/>
</linearGradient>
<linearGradient id="paint8_linear" x1="25.5029" y1="14.1372" x2="25.9186" y2="15.1424" gradientUnits="userSpaceOnUse">
<stop stop-color="#59F37B"/>
<stop offset="1" stop-color="#08D8F4"/>
</linearGradient>
<linearGradient id="paint9_linear" x1="22.4971" y1="18.107" x2="23.172" y2="19.3178" gradientUnits="userSpaceOnUse">
<stop stop-color="#59F37B"/>
<stop offset="1" stop-color="#08D8F4"/>
</linearGradient>
<linearGradient id="paint10_linear" x1="25.5029" y1="18.107" x2="26.1779" y2="19.3178" gradientUnits="userSpaceOnUse">
<stop stop-color="#59F37B"/>
<stop offset="1" stop-color="#08D8F4"/>
</linearGradient>
<linearGradient id="paint11_linear" x1="22.4971" y1="22.4038" x2="22.9127" y2="23.409" gradientUnits="userSpaceOnUse">
<stop stop-color="#59F37B"/>
<stop offset="1" stop-color="#08D8F4"/>
</linearGradient>
<linearGradient id="paint12_linear" x1="25.5029" y1="22.4038" x2="25.9186" y2="23.409" gradientUnits="userSpaceOnUse">
<stop stop-color="#59F37B"/>
<stop offset="1" stop-color="#08D8F4"/>
</linearGradient>
<linearGradient id="paint13_linear" x1="22.4971" y1="31.1931" x2="24.2623" y2="32.575" gradientUnits="userSpaceOnUse">
<stop stop-color="#59F37B"/>
<stop offset="1" stop-color="#08D8F4"/>
</linearGradient>
<linearGradient id="paint14_linear" x1="25.5029" y1="31.1931" x2="27.2682" y2="32.575" gradientUnits="userSpaceOnUse">
<stop stop-color="#59F37B"/>
<stop offset="1" stop-color="#08D8F4"/>
</linearGradient>
<clipPath id="clip0">
<rect width="48" height="48" fill="white"/>
</clipPath>
</defs>
</svg>
