<svg width="48" height="34" viewBox="0 0 48 34" fill="none" xmlns="http://www.w3.org/2000/svg">
<path d="M23.8594 33.4062C24.3771 33.4062 24.7969 32.9865 24.7969 32.4688C24.7969 31.951 24.3771 31.5312 23.8594 31.5312C23.3416 31.5312 22.9219 31.951 22.9219 32.4688C22.9219 32.9865 23.3416 33.4062 23.8594 33.4062Z" fill="black"/>
<path d="M23.8594 33.4062C24.3771 33.4062 24.7969 32.9865 24.7969 32.4688C24.7969 31.951 24.3771 31.5312 23.8594 31.5312C23.3416 31.5312 22.9219 31.951 22.9219 32.4688C22.9219 32.9865 23.3416 33.4062 23.8594 33.4062Z" fill="url(#paint0_linear)"/>
<path d="M47.7253 0.868438C47.5509 0.694063 47.3091 0.59375 47.0625 0.59375H0.9375C0.690938 0.59375 0.449062 0.694063 0.274687 0.868438C0.100313 1.04281 0 1.28469 0 1.53125V32.4688C0 32.7153 0.100313 32.9572 0.274687 33.1316C0.449062 33.3059 0.690938 33.4062 0.9375 33.4062H19.6406C20.1572 33.4062 20.5781 32.9853 20.5781 32.4688C20.5781 31.9522 20.1572 31.5312 19.6406 31.5312H1.875V2.46875H46.125V31.5312H28.0781C27.5616 31.5312 27.1406 31.9522 27.1406 32.4688C27.1406 32.9853 27.5616 33.4062 28.0781 33.4062H47.0625C47.3091 33.4062 47.5509 33.3059 47.7253 33.1316C47.8997 32.9572 48 32.7153 48 32.4688V1.53125C48 1.28469 47.8997 1.04281 47.7253 0.868438Z" fill="black"/>
<path d="M47.7253 0.868438C47.5509 0.694063 47.3091 0.59375 47.0625 0.59375H0.9375C0.690938 0.59375 0.449062 0.694063 0.274687 0.868438C0.100313 1.04281 0 1.28469 0 1.53125V32.4688C0 32.7153 0.100313 32.9572 0.274687 33.1316C0.449062 33.3059 0.690938 33.4062 0.9375 33.4062H19.6406C20.1572 33.4062 20.5781 32.9853 20.5781 32.4688C20.5781 31.9522 20.1572 31.5312 19.6406 31.5312H1.875V2.46875H46.125V31.5312H28.0781C27.5616 31.5312 27.1406 31.9522 27.1406 32.4688C27.1406 32.9853 27.5616 33.4062 28.0781 33.4062H47.0625C47.3091 33.4062 47.5509 33.3059 47.7253 33.1316C47.8997 32.9572 48 32.7153 48 32.4688V1.53125C48 1.28469 47.8997 1.04281 47.7253 0.868438Z" fill="url(#paint1_linear)"/>
<path d="M43.3125 29.6562C43.8303 29.6562 44.25 29.2365 44.25 28.7188V5.28125C44.25 4.76347 43.8303 4.34375 43.3125 4.34375H19.875C19.3572 4.34375 18.9375 4.76347 18.9375 5.28125V28.7188C18.9375 29.2365 19.3572 29.6562 19.875 29.6562H43.3125ZM32.5312 17.9375H36.5156V21.9219H32.5312V17.9375ZM38.3906 17.9375H42.375V21.9219H38.3906V17.9375ZM42.375 16.0625H38.3906V12.0781H42.375V16.0625ZM36.5156 16.0625H32.5312V12.0781H36.5156V16.0625ZM30.6562 16.0625H26.6719V12.0781H30.6562V16.0625ZM24.7969 16.0625H20.8125V12.0781H24.7969V16.0625ZM20.8125 17.9375H24.7969V21.9219H20.8125V17.9375ZM26.6719 17.9375H30.6562V21.9219H26.6719V17.9375ZM32.5312 23.7969H36.5156V27.7812H32.5312V23.7969ZM42.375 27.7812H38.3906V23.7969H42.375V27.7812ZM42.375 10.2031H38.3906V6.21875H42.375V10.2031ZM36.5156 10.2031H32.5312V6.21875H36.5156V10.2031ZM30.6562 10.2031H26.6719V6.21875H30.6562V10.2031ZM20.8125 6.21875H24.7969V10.2031H20.8125V6.21875ZM20.8125 23.7969H24.7969V27.7812H20.8125V23.7969ZM26.6719 23.7969H30.6562V27.7812H26.6719V23.7969Z" fill="black"/>
<path d="M43.3125 29.6562C43.8303 29.6562 44.25 29.2365 44.25 28.7188V5.28125C44.25 4.76347 43.8303 4.34375 43.3125 4.34375H19.875C19.3572 4.34375 18.9375 4.76347 18.9375 5.28125V28.7188C18.9375 29.2365 19.3572 29.6562 19.875 29.6562H43.3125ZM32.5312 17.9375H36.5156V21.9219H32.5312V17.9375ZM38.3906 17.9375H42.375V21.9219H38.3906V17.9375ZM42.375 16.0625H38.3906V12.0781H42.375V16.0625ZM36.5156 16.0625H32.5312V12.0781H36.5156V16.0625ZM30.6562 16.0625H26.6719V12.0781H30.6562V16.0625ZM24.7969 16.0625H20.8125V12.0781H24.7969V16.0625ZM20.8125 17.9375H24.7969V21.9219H20.8125V17.9375ZM26.6719 17.9375H30.6562V21.9219H26.6719V17.9375ZM32.5312 23.7969H36.5156V27.7812H32.5312V23.7969ZM42.375 27.7812H38.3906V23.7969H42.375V27.7812ZM42.375 10.2031H38.3906V6.21875H42.375V10.2031ZM36.5156 10.2031H32.5312V6.21875H36.5156V10.2031ZM30.6562 10.2031H26.6719V6.21875H30.6562V10.2031ZM20.8125 6.21875H24.7969V10.2031H20.8125V6.21875ZM20.8125 23.7969H24.7969V27.7812H20.8125V23.7969ZM26.6719 23.7969H30.6562V27.7812H26.6719V23.7969Z" fill="url(#paint2_linear)"/>
<path d="M17.0625 15.2188C17.0625 14.701 16.6428 14.2812 16.125 14.2812H12.2812C11.7635 14.2812 11.3438 14.701 11.3438 15.2188C11.3438 15.7365 11.7635 16.1562 12.2812 16.1562H16.125C16.6428 16.1562 17.0625 15.7365 17.0625 15.2188Z" fill="black"/>
<path d="M17.0625 15.2188C17.0625 14.701 16.6428 14.2812 16.125 14.2812H12.2812C11.7635 14.2812 11.3438 14.701 11.3438 15.2188C11.3438 15.7365 11.7635 16.1562 12.2812 16.1562H16.125C16.6428 16.1562 17.0625 15.7365 17.0625 15.2188Z" fill="url(#paint3_linear)"/>
<path d="M9.46875 18.0312C9.46875 17.5135 9.04903 17.0938 8.53125 17.0938H4.6875C4.16972 17.0938 3.75 17.5135 3.75 18.0312C3.75 18.549 4.16972 18.9688 4.6875 18.9688H8.53125C9.04903 18.9688 9.46875 18.549 9.46875 18.0312Z" fill="black"/>
<path d="M9.46875 18.0312C9.46875 17.5135 9.04903 17.0938 8.53125 17.0938H4.6875C4.16972 17.0938 3.75 17.5135 3.75 18.0312C3.75 18.549 4.16972 18.9688 4.6875 18.9688H8.53125C9.04903 18.9688 9.46875 18.549 9.46875 18.0312Z" fill="url(#paint4_linear)"/>
<path d="M13.2656 18.9688V26.8438C13.2656 27.3615 13.6853 27.7812 14.2031 27.7812C14.7209 27.7812 15.1406 27.3615 15.1406 26.8438V18.9688C15.1406 18.451 14.7209 18.0312 14.2031 18.0312C13.6853 18.0312 13.2656 18.451 13.2656 18.9688Z" fill="black"/>
<path d="M13.2656 18.9688V26.8438C13.2656 27.3615 13.6853 27.7812 14.2031 27.7812C14.7209 27.7812 15.1406 27.3615 15.1406 26.8438V18.9688C15.1406 18.451 14.7209 18.0312 14.2031 18.0312C13.6853 18.0312 13.2656 18.451 13.2656 18.9688Z" fill="url(#paint5_linear)"/>
<path d="M15.1406 11.4688V7.15625C15.1406 6.63847 14.7209 6.21875 14.2031 6.21875C13.6853 6.21875 13.2656 6.63847 13.2656 7.15625V11.4688C13.2656 11.9865 13.6853 12.4062 14.2031 12.4062C14.7209 12.4062 15.1406 11.9865 15.1406 11.4688Z" fill="black"/>
<path d="M15.1406 11.4688V7.15625C15.1406 6.63847 14.7209 6.21875 14.2031 6.21875C13.6853 6.21875 13.2656 6.63847 13.2656 7.15625V11.4688C13.2656 11.9865 13.6853 12.4062 14.2031 12.4062C14.7209 12.4062 15.1406 11.9865 15.1406 11.4688Z" fill="url(#paint6_linear)"/>
<path d="M5.67188 21.7812V26.8438C5.67188 27.3615 6.09159 27.7812 6.60938 27.7812C7.12716 27.7812 7.54688 27.3615 7.54688 26.8438V21.7812C7.54688 21.2635 7.12716 20.8438 6.60938 20.8438C6.09159 20.8438 5.67188 21.2635 5.67188 21.7812Z" fill="black"/>
<path d="M5.67188 21.7812V26.8438C5.67188 27.3615 6.09159 27.7812 6.60938 27.7812C7.12716 27.7812 7.54688 27.3615 7.54688 26.8438V21.7812C7.54688 21.2635 7.12716 20.8438 6.60938 20.8438C6.09159 20.8438 5.67188 21.2635 5.67188 21.7812Z" fill="url(#paint7_linear)"/>
<path d="M7.54688 14.2812V7.15625C7.54688 6.63847 7.12716 6.21875 6.60938 6.21875C6.09159 6.21875 5.67188 6.63847 5.67188 7.15625V14.2812C5.67188 14.799 6.09159 15.2188 6.60938 15.2188C7.12716 15.2188 7.54688 14.799 7.54688 14.2812Z" fill="black"/>
<path d="M7.54688 14.2812V7.15625C7.54688 6.63847 7.12716 6.21875 6.60938 6.21875C6.09159 6.21875 5.67188 6.63847 5.67188 7.15625V14.2812C5.67188 14.799 6.09159 15.2188 6.60938 15.2188C7.12716 15.2188 7.54688 14.799 7.54688 14.2812Z" fill="url(#paint8_linear)"/>
<defs>
<linearGradient id="paint0_linear" x1="23.8594" y1="32.0611" x2="24.1163" y2="33.0148" gradientUnits="userSpaceOnUse">
<stop stop-color="#59F37B"/>
<stop offset="1" stop-color="#08D8F4"/>
</linearGradient>
<linearGradient id="paint1_linear" x1="24" y1="9.86685" x2="27.1889" y2="27.1794" gradientUnits="userSpaceOnUse">
<stop stop-color="#59F37B"/>
<stop offset="1" stop-color="#08D8F4"/>
</linearGradient>
<linearGradient id="paint2_linear" x1="31.5938" y1="11.4973" x2="35.0626" y2="24.3711" gradientUnits="userSpaceOnUse">
<stop stop-color="#59F37B"/>
<stop offset="1" stop-color="#08D8F4"/>
</linearGradient>
<linearGradient id="paint3_linear" x1="14.2031" y1="14.8111" x2="14.2928" y2="15.8261" gradientUnits="userSpaceOnUse">
<stop stop-color="#59F37B"/>
<stop offset="1" stop-color="#08D8F4"/>
</linearGradient>
<linearGradient id="paint4_linear" x1="6.60938" y1="17.6236" x2="6.69904" y2="18.6386" gradientUnits="userSpaceOnUse">
<stop stop-color="#59F37B"/>
<stop offset="1" stop-color="#08D8F4"/>
</linearGradient>
<linearGradient id="paint5_linear" x1="14.2031" y1="20.7867" x2="16.7181" y2="22.5816" gradientUnits="userSpaceOnUse">
<stop stop-color="#59F37B"/>
<stop offset="1" stop-color="#08D8F4"/>
</linearGradient>
<linearGradient id="paint6_linear" x1="14.2031" y1="7.96739" x2="15.8793" y2="9.8524" gradientUnits="userSpaceOnUse">
<stop stop-color="#59F37B"/>
<stop offset="1" stop-color="#08D8F4"/>
</linearGradient>
<linearGradient id="paint7_linear" x1="6.60938" y1="22.8043" x2="8.50165" y2="24.7024" gradientUnits="userSpaceOnUse">
<stop stop-color="#59F37B"/>
<stop offset="1" stop-color="#08D8F4"/>
</linearGradient>
<linearGradient id="paint8_linear" x1="6.60938" y1="8.76223" x2="8.98518" y2="10.5991" gradientUnits="userSpaceOnUse">
<stop stop-color="#59F37B"/>
<stop offset="1" stop-color="#08D8F4"/>
</linearGradient>
</defs>
</svg>
