<svg width="48" height="48" viewBox="0 0 48 48" fill="none" xmlns="http://www.w3.org/2000/svg">
<g clip-path="url(#clip0)">
<path d="M0.814112 9.09198C0.357451 9.09893 -0.00734735 9.47449 -0.000892199 9.93115V38.069C-0.00767838 38.5839 0.452458 38.9798 0.960594 38.8966H47.0363C47.5449 38.9807 48.0059 38.5844 47.9989 38.069V9.93115C48.0052 9.46969 47.6328 9.09231 47.1714 9.09231H47.1591H0.827188C0.82305 9.09215 0.818746 9.09231 0.814608 9.09231L0.814112 9.09198ZM1.65444 10.7471H4.96477V23.1725C4.96477 23.6295 5.33537 24.0001 5.79236 24.0001H6.61994V37.2414H1.65444V10.7471ZM9.93027 10.7471H13.2406V37.2414H8.27511V24.0001H9.10269C9.55968 24.0001 9.93027 23.6295 9.93027 23.1725V10.7471ZM14.8958 10.7471H18.2061V23.1725C18.2061 23.6295 18.5767 24.0001 19.0337 24.0001H19.8613V37.2414H14.8958V10.7471ZM23.1716 10.7471H24.8268V23.1725C24.8268 23.6295 25.1974 24.0001 25.6544 24.0001H26.4819V37.2414H21.5164V24.0001H22.344C22.801 24.0001 23.1716 23.6295 23.1716 23.1725V10.7471ZM29.7923 10.7471H31.4474V23.1725C31.4474 23.6295 31.818 24.0001 32.275 24.0001H33.1026V37.2414H28.1371V24.0001H28.9647C29.4217 24.0001 29.7923 23.6295 29.7923 23.1725V10.7471ZM36.4129 10.7471H39.7233V37.2414H34.7578V24.0001H35.5854C36.0423 24.0001 36.4129 23.6295 36.4129 23.1725V10.7471ZM41.3784 10.7471H46.3439V37.2414H41.3784V10.7471Z" fill="black"/>
<path d="M0.814112 9.09198C0.357451 9.09893 -0.00734735 9.47449 -0.000892199 9.93115V38.069C-0.00767838 38.5839 0.452458 38.9798 0.960594 38.8966H47.0363C47.5449 38.9807 48.0059 38.5844 47.9989 38.069V9.93115C48.0052 9.46969 47.6328 9.09231 47.1714 9.09231H47.1591H0.827188C0.82305 9.09215 0.818746 9.09231 0.814608 9.09231L0.814112 9.09198ZM1.65444 10.7471H4.96477V23.1725C4.96477 23.6295 5.33537 24.0001 5.79236 24.0001H6.61994V37.2414H1.65444V10.7471ZM9.93027 10.7471H13.2406V37.2414H8.27511V24.0001H9.10269C9.55968 24.0001 9.93027 23.6295 9.93027 23.1725V10.7471ZM14.8958 10.7471H18.2061V23.1725C18.2061 23.6295 18.5767 24.0001 19.0337 24.0001H19.8613V37.2414H14.8958V10.7471ZM23.1716 10.7471H24.8268V23.1725C24.8268 23.6295 25.1974 24.0001 25.6544 24.0001H26.4819V37.2414H21.5164V24.0001H22.344C22.801 24.0001 23.1716 23.6295 23.1716 23.1725V10.7471ZM29.7923 10.7471H31.4474V23.1725C31.4474 23.6295 31.818 24.0001 32.275 24.0001H33.1026V37.2414H28.1371V24.0001H28.9647C29.4217 24.0001 29.7923 23.6295 29.7923 23.1725V10.7471ZM36.4129 10.7471H39.7233V37.2414H34.7578V24.0001H35.5854C36.0423 24.0001 36.4129 23.6295 36.4129 23.1725V10.7471ZM41.3784 10.7471H46.3439V37.2414H41.3784V10.7471Z" fill="url(#paint0_linear)"/>
</g>
<defs>
<linearGradient id="paint0_linear" x1="23.999" y1="17.5182" x2="26.6472" y2="33.3402" gradientUnits="userSpaceOnUse">
<stop stop-color="#59F37B"/>
<stop offset="1" stop-color="#08D8F4"/>
</linearGradient>
<clipPath id="clip0">
<rect width="48" height="48" fill="white"/>
</clipPath>
</defs>
</svg>
