<svg width="30" height="30" viewBox="0 0 30 30" fill="none" xmlns="http://www.w3.org/2000/svg">
<g clip-path="url(#clip0)">
<path d="M3.19803 23.4834L5.52846 21.1529L3.91119 19.5357L15.6261 6.15838C15.6237 4.5472 16.2552 2.98888 17.3897 1.83476C19.7554 -0.572127 23.6475 -0.616655 26.0657 1.73534C27.256 2.89302 27.9179 4.44438 27.9295 6.1036C27.9411 7.76317 27.3012 9.32331 26.1278 10.4968C24.9713 11.6533 23.4032 12.2983 21.7762 12.2982H21.7659L8.38861 24.0131L6.77134 22.3959L4.44091 24.7265C3.72341 25.444 3.73982 26.3563 3.99439 26.971C4.24903 27.5857 4.88262 28.2425 5.89735 28.2425C6.23342 28.2425 6.56791 28.159 6.86467 28.0012L11.5687 25.4989C15.9053 23.1919 21.0831 23.1923 25.4194 25.4999L27.4638 26.5878L26.638 28.1395L24.5936 27.0516C20.7743 25.0191 16.2138 25.0187 12.3941 27.0506L7.69015 29.553C7.14016 29.8456 6.52022 30.0002 5.89729 30.0002C4.3239 30.0002 2.97252 29.0972 2.3705 27.6436C1.76843 26.1899 2.08552 24.5959 3.19803 23.4834ZM14.2367 10.413L17.5114 13.6876L20.1619 11.3665L16.5579 7.76252L14.2367 10.413ZM17.3856 6.10447L21.8199 10.5388C22.6702 10.5303 23.4966 10.2757 24.1998 9.81148L18.113 3.72471C17.649 4.42779 17.3941 5.25445 17.3856 6.10447ZM26.1719 6.11572C26.1637 4.93062 25.6908 3.82244 24.8403 2.99526C23.3383 1.53437 21.0404 1.36891 19.3553 2.48119L25.4446 8.57054C25.9238 7.84924 26.1781 7.00243 26.1719 6.11572ZM8.46829 21.6068L16.1861 14.8481L13.0762 11.7382L6.31744 19.4561L8.46829 21.6068Z" fill="black"/>
<path d="M3.19803 23.4834L5.52846 21.1529L3.91119 19.5357L15.6261 6.15838C15.6237 4.5472 16.2552 2.98888 17.3897 1.83476C19.7554 -0.572127 23.6475 -0.616655 26.0657 1.73534C27.256 2.89302 27.9179 4.44438 27.9295 6.1036C27.9411 7.76317 27.3012 9.32331 26.1278 10.4968C24.9713 11.6533 23.4032 12.2983 21.7762 12.2982H21.7659L8.38861 24.0131L6.77134 22.3959L4.44091 24.7265C3.72341 25.444 3.73982 26.3563 3.99439 26.971C4.24903 27.5857 4.88262 28.2425 5.89735 28.2425C6.23342 28.2425 6.56791 28.159 6.86467 28.0012L11.5687 25.4989C15.9053 23.1919 21.0831 23.1923 25.4194 25.4999L27.4638 26.5878L26.638 28.1395L24.5936 27.0516C20.7743 25.0191 16.2138 25.0187 12.3941 27.0506L7.69015 29.553C7.14016 29.8456 6.52022 30.0002 5.89729 30.0002C4.3239 30.0002 2.97252 29.0972 2.3705 27.6436C1.76843 26.1899 2.08552 24.5959 3.19803 23.4834ZM14.2367 10.413L17.5114 13.6876L20.1619 11.3665L16.5579 7.76252L14.2367 10.413ZM17.3856 6.10447L21.8199 10.5388C22.6702 10.5303 23.4966 10.2757 24.1998 9.81148L18.113 3.72471C17.649 4.42779 17.3941 5.25445 17.3856 6.10447ZM26.1719 6.11572C26.1637 4.93062 25.6908 3.82244 24.8403 2.99526C23.3383 1.53437 21.0404 1.36891 19.3553 2.48119L25.4446 8.57054C25.9238 7.84924 26.1781 7.00243 26.1719 6.11572ZM8.46829 21.6068L16.1861 14.8481L13.0762 11.7382L6.31744 19.4561L8.46829 21.6068Z" fill="url(#paint0_linear)"/>
</g>
<defs>
<linearGradient id="paint0_linear" x1="15" y1="8.47836" x2="10.3395" y2="23.3873" gradientUnits="userSpaceOnUse">
<stop stop-color="#59F37B"/>
<stop offset="1" stop-color="#08D8F4"/>
</linearGradient>
<clipPath id="clip0">
<rect width="30" height="30" fill="white" transform="matrix(-1 0 0 1 30 0)"/>
</clipPath>
</defs>
</svg>
