<svg width="17" height="17" viewBox="0 0 17 17" fill="none" xmlns="http://www.w3.org/2000/svg">
<circle cx="8.5" cy="8.5" r="8.5" fill="#E94141"/>
<path d="M8.00283 10.4219L7.32999 6.35624V3.57898H9.56326V6.35624L8.90473 10.4219H8.00283ZM8.43231 13.7432C7.9742 13.7432 7.64494 13.6382 7.44452 13.4282C7.25364 13.2183 7.1582 12.9606 7.1582 12.6552V12.3116C7.1582 12.0062 7.25364 11.7485 7.44452 11.5386C7.64494 11.3286 7.9742 11.2236 8.43231 11.2236C8.89041 11.2236 9.21491 11.3286 9.40578 11.5386C9.6062 11.7485 9.70641 12.0062 9.70641 12.3116V12.6552C9.70641 12.9606 9.6062 13.2183 9.40578 13.4282C9.21491 13.6382 8.89041 13.7432 8.43231 13.7432Z" fill="#191919"/>
</svg>
