<svg width="16" height="10" viewBox="0 0 16 10" fill="none" xmlns="http://www.w3.org/2000/svg">
<path d="M7.56094 0.861509L0.180933 8.26198C-0.0607219 8.50445 -0.0603157 8.89701 0.182183 9.13907C0.424651 9.38094 0.817431 9.38032 1.05927 9.13782L8.00003 2.17785L14.9407 9.13807C15.1826 9.38054 15.5752 9.38116 15.8177 9.13932C15.9392 9.01798 16 8.85901 16 8.70004C16 8.54148 15.9396 8.38314 15.8189 8.26201L8.43909 0.861509C8.3229 0.744729 8.16478 0.679197 8.00003 0.679197C7.83528 0.679197 7.67734 0.744917 7.56094 0.861509Z" fill="black"/>
<path d="M7.56094 0.861509L0.180933 8.26198C-0.0607219 8.50445 -0.0603157 8.89701 0.182183 9.13907C0.424651 9.38094 0.817431 9.38032 1.05927 9.13782L8.00003 2.17785L14.9407 9.13807C15.1826 9.38054 15.5752 9.38116 15.8177 9.13932C15.9392 9.01798 16 8.85901 16 8.70004C16 8.54148 15.9396 8.38314 15.8189 8.26201L8.43909 0.861509C8.3229 0.744729 8.16478 0.679197 8.00003 0.679197C7.83528 0.679197 7.67734 0.744917 7.56094 0.861509Z" fill="url(#paint0_linear)"/>
<defs>
<linearGradient id="paint0_linear" x1="-1.88858e-07" y1="4.99975" x2="16" y2="4.99975" gradientUnits="userSpaceOnUse">
<stop stop-color="#59F37B"/>
<stop offset="1" stop-color="#08D8F4"/>
</linearGradient>
</defs>
</svg>
