<svg width="60" height="60" viewBox="0 0 60 60" fill="none" xmlns="http://www.w3.org/2000/svg">
<path fill-rule="evenodd" clip-rule="evenodd" d="M8.21951 53.5161L39.7567 21.9789C40.9138 20.8218 42.7899 20.8218 43.947 21.9789L53.7037 31.7357V9.25925C53.7037 7.62285 52.3771 6.29629 50.7407 6.29629H9.25925C7.62285 6.29629 6.29629 7.62285 6.29629 9.25925V50.7407C6.29629 52.0113 7.09599 53.095 8.21951 53.5161ZM16.4125 53.7037H50.7407C52.3771 53.7037 53.7037 52.3771 53.7037 50.7407V40.1162L41.8518 28.2643L16.4125 53.7037ZM9.25925 0.370361H50.7407C55.6499 0.370361 59.6296 4.35005 59.6296 9.25925V50.7407C59.6296 55.6499 55.6499 59.6296 50.7407 59.6296H9.25925C4.35005 59.6296 0.370361 55.6499 0.370361 50.7407V9.25925C0.370361 4.35005 4.35005 0.370361 9.25925 0.370361ZM19.6296 27.037C15.5386 27.037 12.2222 23.7206 12.2222 19.6296C12.2222 15.5386 15.5386 12.2222 19.6296 12.2222C23.7206 12.2222 27.037 15.5386 27.037 19.6296C27.037 23.7206 23.7206 27.037 19.6296 27.037ZM19.6296 21.1111C20.4478 21.1111 21.1111 20.4478 21.1111 19.6296C21.1111 18.8114 20.4478 18.1481 19.6296 18.1481C18.8114 18.1481 18.1481 18.8114 18.1481 19.6296C18.1481 20.4478 18.8114 21.1111 19.6296 21.1111Z" fill="#B9B9B9"/>
</svg>
