<svg width="14" height="8" viewBox="0 0 14 8" fill="none" xmlns="http://www.w3.org/2000/svg">
<path d="M7.38312 7.61957L13.8398 1.14503C14.0512 0.932901 14.0508 0.589457 13.8387 0.377682C13.6265 0.166071 13.2829 0.166617 13.0713 0.378775L6.99897 6.46793L0.926659 0.378556C0.715048 0.166425 0.371631 0.165879 0.159472 0.377462C0.0531206 0.483623 -5.62844e-05 0.622702 -5.62905e-05 0.76178C-5.62966e-05 0.900503 0.0527649 1.03903 0.158379 1.145L6.61484 7.61957C6.71649 7.72174 6.85483 7.77907 6.99897 7.77907C7.14311 7.77907 7.28128 7.72157 7.38312 7.61957Z" fill="black"/>
<path d="M7.38312 7.61957L13.8398 1.14503C14.0512 0.932901 14.0508 0.589457 13.8387 0.377682C13.6265 0.166071 13.2829 0.166617 13.0713 0.378775L6.99897 6.46793L0.926659 0.378556C0.715048 0.166425 0.371631 0.165879 0.159472 0.377462C0.0531206 0.483623 -5.62844e-05 0.622702 -5.62905e-05 0.76178C-5.62966e-05 0.900503 0.0527649 1.03903 0.158379 1.145L6.61484 7.61957C6.71649 7.72174 6.85483 7.77907 6.99897 7.77907C7.14311 7.77907 7.28128 7.72157 7.38312 7.61957Z" fill="url(#paint0_linear)"/>
<defs>
<linearGradient id="paint0_linear" x1="13.998" y1="3.99909" x2="-5.6432e-05" y2="3.99909" gradientUnits="userSpaceOnUse">
<stop stop-color="#59F37B"/>
<stop offset="1" stop-color="#08D8F4"/>
</linearGradient>
</defs>
</svg>
