<svg width="19" height="19" viewBox="0 0 19 19" fill="none" xmlns="http://www.w3.org/2000/svg">
<g clip-path="url(#clip0)">
<path d="M18.7733 3.12891H0V15.6446H18.7733V3.12891Z" fill="#F0F0F0"/>
<path d="M10.56 3.12866H8.21334V8.21309H0V10.5598H8.21334V15.6442H10.56V10.5598H18.7733V8.21309H10.56V3.12866Z" fill="#D80027"/>
<path d="M14.4387 11.5631L18.7733 13.9712V11.5631H14.4387Z" fill="#0052B4"/>
<path d="M11.4272 11.5631L18.7733 15.6443V14.4902L13.5045 11.5631H11.4272Z" fill="#0052B4"/>
<path d="M16.8165 15.6443L11.4271 12.6499V15.6443H16.8165Z" fill="#0052B4"/>
<path d="M11.4272 11.5631L18.7733 15.6443V14.4902L13.5045 11.5631H11.4272Z" fill="#F0F0F0"/>
<path d="M11.4272 11.5631L18.7733 15.6443V14.4902L13.5045 11.5631H11.4272Z" fill="#D80027"/>
<path d="M3.31251 11.5631L0 13.4034V11.5631H3.31251Z" fill="#0052B4"/>
<path d="M7.34624 12.0822V15.6444H0.934814L7.34624 12.0822Z" fill="#0052B4"/>
<path d="M5.26875 11.5631L0 14.4902V15.6443L7.3461 11.5631H5.26875Z" fill="#D80027"/>
<path d="M4.33455 7.20988L0 4.80176V7.20988H4.33455Z" fill="#0052B4"/>
<path d="M7.3461 7.20981L0 3.12866V4.28271L5.26875 7.20981H7.3461Z" fill="#0052B4"/>
<path d="M1.95685 3.12866L7.34619 6.12301V3.12866H1.95685Z" fill="#0052B4"/>
<path d="M7.3461 7.20981L0 3.12866V4.28271L5.26875 7.20981H7.3461Z" fill="#F0F0F0"/>
<path d="M7.3461 7.20981L0 3.12866V4.28271L5.26875 7.20981H7.3461Z" fill="#D80027"/>
<path d="M15.4608 7.20993L18.7733 5.36963V7.20993H15.4608Z" fill="#0052B4"/>
<path d="M11.4272 6.69087V3.12866H17.8386L11.4272 6.69087Z" fill="#0052B4"/>
<path d="M13.5045 7.20981L18.7733 4.28271V3.12866L11.4272 7.20981H13.5045Z" fill="#D80027"/>
</g>
<defs>
<clipPath id="clip0">
<rect width="18.7733" height="18.7733" fill="white"/>
</clipPath>
</defs>
</svg>
