<svg width="49" height="33" viewBox="0 0 49 33" fill="none" xmlns="http://www.w3.org/2000/svg">
<g clip-path="url(#clip0)">
<path d="M18 7H0V19.0001H18V7Z" fill="#F0F0F0"/>
<path d="M10.125 6.99988H7.875V11.8749H0V14.1249H7.875V18.9998H10.125V14.1249H18V11.8749H10.125V6.99988Z" fill="#D80027"/>
<path d="M13.844 15.0868L18 17.3957V15.0868H13.844Z" fill="#0052B4"/>
<path d="M10.9565 15.0868L18 18.9998V17.8933L12.9483 15.0868H10.9565Z" fill="#0052B4"/>
<path d="M16.1239 18.9998L10.9565 16.1288V18.9998H16.1239Z" fill="#0052B4"/>
<path d="M10.9565 15.0868L18 18.9998V17.8933L12.9483 15.0868H10.9565Z" fill="#F0F0F0"/>
<path d="M10.9565 15.0868L18 18.9998V17.8933L12.9483 15.0868H10.9565Z" fill="#D80027"/>
<path d="M3.17605 15.0868L0 16.8513V15.0868H3.17605Z" fill="#0052B4"/>
<path d="M7.0435 15.5845V18.9999H0.896179L7.0435 15.5845Z" fill="#0052B4"/>
<path d="M5.05171 15.0868L0 17.8933V18.9998L7.04348 15.0868H5.05171Z" fill="#D80027"/>
<path d="M4.156 10.9129L0 8.604V10.9129H4.156Z" fill="#0052B4"/>
<path d="M7.04348 10.9129L0 6.99988V8.10639L5.05171 10.9129H7.04348Z" fill="#0052B4"/>
<path d="M1.87616 6.99988L7.0435 9.87088V6.99988H1.87616Z" fill="#0052B4"/>
<path d="M7.04348 10.9129L0 6.99988V8.10639L5.05171 10.9129H7.04348Z" fill="#F0F0F0"/>
<path d="M7.04348 10.9129L0 6.99988V8.10639L5.05171 10.9129H7.04348Z" fill="#D80027"/>
<path d="M14.824 10.9129L18 9.14844V10.9129H14.824Z" fill="#0052B4"/>
<path d="M10.9565 10.4153V6.99988H17.1039L10.9565 10.4153Z" fill="#0052B4"/>
<path d="M12.9483 10.9129L18 8.10639V6.99988L10.9565 10.9129H12.9483Z" fill="#D80027"/>
</g>
<rect x="23.6986" y="11.3093" width="23.6027" height="18.5" rx="3.75" fill="#C4C4C4" stroke="#111111" stroke-width="1.5"/>
<path d="M30.519 24.5H28.847V16.822H32.488C32.84 16.822 33.159 16.8807 33.445 16.998C33.731 17.1153 33.973 17.284 34.171 17.504C34.3763 17.7167 34.534 17.9733 34.644 18.274C34.754 18.5747 34.809 18.9083 34.809 19.275C34.809 19.7957 34.6917 20.2503 34.457 20.639C34.2297 21.0277 33.8813 21.31 33.412 21.486L34.919 24.5H33.06L31.718 21.684H30.519V24.5ZM32.279 20.276C32.5283 20.276 32.7227 20.2137 32.862 20.089C33.0087 19.957 33.082 19.7663 33.082 19.517V19.033C33.082 18.7837 33.0087 18.5967 32.862 18.472C32.7227 18.34 32.5283 18.274 32.279 18.274H30.519V20.276H32.279ZM37.3627 16.822V21.53C37.3627 22.0727 37.4691 22.4797 37.6817 22.751C37.8944 23.015 38.2501 23.147 38.7487 23.147C39.2474 23.147 39.6031 23.015 39.8157 22.751C40.0284 22.4797 40.1347 22.0727 40.1347 21.53V16.822H41.7627V21.354C41.7627 21.9187 41.7077 22.41 41.5977 22.828C41.4951 23.2387 41.3227 23.5797 41.0807 23.851C40.8387 24.115 40.5271 24.313 40.1457 24.445C39.7644 24.5697 39.2987 24.632 38.7487 24.632C38.1987 24.632 37.7331 24.5697 37.3517 24.445C36.9704 24.313 36.6587 24.115 36.4167 23.851C36.1747 23.5797 35.9987 23.2387 35.8887 22.828C35.7861 22.41 35.7347 21.9187 35.7347 21.354V16.822H37.3627Z" fill="#131313"/>
<rect x="13.6986" y="3.25" width="23.6027" height="18.5" rx="3.75" fill="#C4C4C4" stroke="#111111" stroke-width="1.5"/>
<path d="M18.847 16.5V8.822H24.072V10.307H20.519V11.88H23.566V13.354H20.519V15.015H24.072V16.5H18.847ZM27.5416 12.87L26.8046 11.33H26.7716V16.5H25.1986V8.822H27.0246L29.1256 12.452L29.8626 13.992H29.8956V8.822H31.4686V16.5H29.6426L27.5416 12.87Z" fill="#131313"/>
<defs>
<clipPath id="clip0">
<rect width="18" height="18" fill="white" transform="translate(0 4)"/>
</clipPath>
</defs>
</svg>
