<svg width="26" height="22" viewBox="0 0 26 22" fill="none" xmlns="http://www.w3.org/2000/svg">
<path d="M20.2069 19.1333V20.4667C20.2069 21.0533 19.7002 21.4 19.1136 21.4H1.70023C1.11356 21.4 0.740234 21.08 0.740234 20.4667V7.26667C0.740234 6.68001 1.11356 6.14667 1.70023 6.14667H4.82023C5.4069 6.14667 5.8869 6.62667 5.8869 7.21334C5.8869 7.8 5.4069 8.28 4.82023 8.28H2.87357V19.2667H18.0736V19.1333C18.0736 18.5467 18.5536 18.0667 19.1402 18.0667C19.7536 18.04 20.2069 18.5467 20.2069 19.1333ZM24.9536 9.18668L18.3402 15.9333C18.0202 16.2533 17.5669 16.3333 17.1669 16.1733C16.7669 16.0133 16.5002 15.6133 16.5002 15.1867V12.28C14.3669 12.2267 9.24691 12.44 7.38024 15.72C7.19357 16.0667 6.82024 16.28 6.44691 16.28C6.36691 16.28 6.26024 16.28 6.18024 16.2533C5.70024 16.12 5.38024 15.6933 5.38024 15.2133C5.38024 15.0267 5.38023 10.92 8.47357 7.85334C10.4202 5.88001 13.0336 4.81333 16.5002 4.62667V1.66667C16.5002 1.24001 16.7669 0.840003 17.1669 0.680003C17.5669 0.520003 18.0469 0.600009 18.3402 0.920009L24.9802 7.66667C25.3802 8.09334 25.3802 8.76001 24.9536 9.18668ZM22.6602 8.41334L18.6069 4.30668V5.61334C18.6069 6.2 18.1536 6.68 17.5402 6.68C14.2336 6.68 11.7002 7.56001 9.9669 9.32001C9.16689 10.12 8.63356 11 8.2869 11.8533C10.7936 10.36 13.9669 10.0933 15.9136 10.0933C16.9269 10.0933 17.5936 10.1733 17.6736 10.1733C18.2069 10.2267 18.6069 10.7067 18.6069 11.24V12.5467L22.6602 8.41334Z" fill="#B9B9B9"/>
</svg>
