<svg width="26" height="22" viewBox="0 0 26 22" fill="none" xmlns="http://www.w3.org/2000/svg">
<path d="M24.2067 0.333328H1.80666C1.21999 0.333328 0.73999 0.813325 0.73999 1.39999V15.0266C0.73999 15.6132 1.21999 16.0666 1.80666 16.0666H14.34V20.5999C14.34 21.0532 14.6867 21.4532 15.0867 21.6132C15.22 21.6666 15.3533 21.6665 15.4867 21.6665C15.8067 21.6665 16.1 21.5332 16.3133 21.2932L20.74 16.0666H24.2067C24.7933 16.0666 25.2733 15.6132 25.2733 15.0266V1.39999C25.2733 0.813325 24.7933 0.333328 24.2067 0.333328ZM23.14 13.9332H20.26C19.94 13.9332 19.5933 14.0933 19.38 14.3066L16.4733 17.6666V14.9999C16.4733 14.4132 16.1 13.9066 15.5133 13.9066H2.87332V2.43999H23.14V13.9332ZM5.69998 6.19996C5.69998 5.6133 6.17998 5.1333 6.76665 5.1333H14.5C15.0866 5.1333 15.5666 5.6133 15.5666 6.19996C15.5666 6.78662 15.0866 7.26662 14.5 7.26662H6.76665C6.17998 7.26662 5.69998 6.78662 5.69998 6.19996ZM17.4067 7.02662C17.22 6.83995 17.0867 6.54664 17.0867 6.27997C17.0867 5.98664 17.1933 5.71996 17.4067 5.5333C17.62 5.31997 17.8867 5.21331 18.1533 5.21331C18.4467 5.21331 18.7133 5.31997 18.9 5.5333C19.0866 5.71996 19.22 6.01331 19.22 6.27997C19.22 6.57331 19.1133 6.83995 18.9 7.02662C18.6866 7.23995 18.42 7.34663 18.1533 7.34663C17.8867 7.31997 17.62 7.21328 17.4067 7.02662Z" fill="#B9B9B9"/>
</svg>
