<svg width="26" height="26" viewBox="0 0 26 26" fill="none" xmlns="http://www.w3.org/2000/svg">
<path d="M16.6866 25.2669C13.3799 25.2669 8.1799 24.1735 6.8999 23.2668C6.60656 23.0535 6.44658 22.7335 6.44658 22.3868V11.9601C6.44658 11.6401 6.60658 11.3201 6.84658 11.1334C6.92658 11.0801 8.79324 9.61339 10.7399 8.52005C13.1666 7.18671 14.8466 5.32005 15.2466 4.14671C15.7266 2.7067 16.4199 0.733337 18.6066 0.733337C19.6466 0.733337 20.4999 1.32001 20.9532 2.33335C21.8599 4.41336 20.8999 7.29338 19.2999 9.56006C20.3666 9.80007 21.6999 10.1467 22.4999 10.3867C23.9666 10.8401 24.9266 11.9068 25.1399 13.2134C25.3266 14.5468 24.6599 15.9068 23.2466 16.9468C22.2066 19.7468 20.4199 24.1735 19.1132 24.8935C18.6066 25.1602 17.7266 25.2669 16.6866 25.2669ZM8.57991 21.7468C10.6066 22.6002 16.8466 23.4802 18.0199 23.0268C18.6332 22.4668 20.2066 18.8935 21.2999 15.8801C21.3799 15.6668 21.5132 15.4801 21.6999 15.3468C22.5799 14.7601 23.0332 14.0668 22.9532 13.4801C22.8732 13.0001 22.4466 12.6001 21.8066 12.3867C20.4732 11.9601 17.1666 11.2401 17.1132 11.2401C16.7399 11.1601 16.4466 10.8934 16.3132 10.5201C16.1799 10.1467 16.2866 9.74675 16.5532 9.48008C18.9532 6.8934 19.3799 4.25335 18.9266 3.18668C18.7932 2.86667 18.6332 2.86669 18.5532 2.86669C18.0199 2.86669 17.7799 3.24003 17.2199 4.84004C16.5799 6.70672 14.3666 8.94672 11.7266 10.3867C10.4466 11.0801 9.16657 12.0134 8.52657 12.4934V21.7468H8.57991ZM4.36656 22.4935V11.8534C4.36656 10.8934 3.59323 10.1201 2.63323 10.1201C1.67323 10.1201 0.899896 10.8934 0.899896 11.8534V22.4935C0.899896 23.4535 1.67323 24.2268 2.63323 24.2268C3.56656 24.2268 4.36656 23.4268 4.36656 22.4935Z" fill="#B9B9B9"/>
</svg>
