<svg width="19" height="17" viewBox="0 0 19 17" fill="none" xmlns="http://www.w3.org/2000/svg">
<path d="M9.50572 14.4227C9.50572 14.7574 9.31232 15.0615 9.00967 15.2034C8.89266 15.2588 8.76727 15.2855 8.64269 15.2855C8.44542 15.2855 8.24998 15.2177 8.09212 15.0868L3.3751 11.1781H0.862819C0.38638 11.1785 0 10.7919 0 10.3155V6.8779C0 6.40126 0.38638 6.01488 0.862819 6.01488H3.37531L8.09233 2.10615C8.35005 1.89254 8.70743 1.847 9.00988 1.98995C9.31232 2.13188 9.50592 2.43617 9.50592 2.77068L9.50572 14.4227ZM12.8216 13.0745C12.8006 13.0759 12.7803 13.0767 12.7595 13.0767C12.5316 13.0767 12.3119 12.9867 12.1495 12.8241L12.0341 12.7083C11.7315 12.4063 11.696 11.9278 11.9508 11.5843C12.597 10.7131 12.938 9.68038 12.938 8.597C12.938 7.43174 12.5508 6.33877 11.8181 5.43612C11.5391 5.09304 11.5648 4.59475 11.8775 4.28229L11.9927 4.16691C12.165 3.99455 12.396 3.90061 12.646 3.91552C12.8894 3.92777 13.1167 4.04234 13.2711 4.23104C14.2875 5.47472 14.8244 6.98471 14.8244 8.59721C14.8244 10.099 14.3496 11.5285 13.451 12.7306C13.3009 12.9309 13.0714 13.0567 12.8216 13.0745ZM16.3889 15.7409C16.2329 15.9254 16.0072 16.036 15.7656 16.0463C15.7538 16.0467 15.7417 16.0471 15.7295 16.0471C15.5009 16.0471 15.2816 15.9568 15.1193 15.7945L15.0059 15.6811C14.6892 15.3646 14.6677 14.8583 14.9557 14.5156C16.3472 12.8607 17.1138 10.7589 17.1138 8.597C17.1138 6.34836 16.2931 4.18366 14.8033 2.50172C14.5013 2.16027 14.5166 1.64339 14.838 1.32073L14.9512 1.20739C15.119 1.03871 15.3372 0.945786 15.5873 0.953751C15.8248 0.96049 16.0495 1.06546 16.2073 1.24313C18.0081 3.2706 19 5.88254 19 8.597C19.0004 11.2087 18.0731 13.7459 16.3889 15.7409Z" fill="black"/>
<path d="M9.50572 14.4227C9.50572 14.7574 9.31232 15.0615 9.00967 15.2034C8.89266 15.2588 8.76727 15.2855 8.64269 15.2855C8.44542 15.2855 8.24998 15.2177 8.09212 15.0868L3.3751 11.1781H0.862819C0.38638 11.1785 0 10.7919 0 10.3155V6.8779C0 6.40126 0.38638 6.01488 0.862819 6.01488H3.37531L8.09233 2.10615C8.35005 1.89254 8.70743 1.847 9.00988 1.98995C9.31232 2.13188 9.50592 2.43617 9.50592 2.77068L9.50572 14.4227ZM12.8216 13.0745C12.8006 13.0759 12.7803 13.0767 12.7595 13.0767C12.5316 13.0767 12.3119 12.9867 12.1495 12.8241L12.0341 12.7083C11.7315 12.4063 11.696 11.9278 11.9508 11.5843C12.597 10.7131 12.938 9.68038 12.938 8.597C12.938 7.43174 12.5508 6.33877 11.8181 5.43612C11.5391 5.09304 11.5648 4.59475 11.8775 4.28229L11.9927 4.16691C12.165 3.99455 12.396 3.90061 12.646 3.91552C12.8894 3.92777 13.1167 4.04234 13.2711 4.23104C14.2875 5.47472 14.8244 6.98471 14.8244 8.59721C14.8244 10.099 14.3496 11.5285 13.451 12.7306C13.3009 12.9309 13.0714 13.0567 12.8216 13.0745ZM16.3889 15.7409C16.2329 15.9254 16.0072 16.036 15.7656 16.0463C15.7538 16.0467 15.7417 16.0471 15.7295 16.0471C15.5009 16.0471 15.2816 15.9568 15.1193 15.7945L15.0059 15.6811C14.6892 15.3646 14.6677 14.8583 14.9557 14.5156C16.3472 12.8607 17.1138 10.7589 17.1138 8.597C17.1138 6.34836 16.2931 4.18366 14.8033 2.50172C14.5013 2.16027 14.5166 1.64339 14.838 1.32073L14.9512 1.20739C15.119 1.03871 15.3372 0.945786 15.5873 0.953751C15.8248 0.96049 16.0495 1.06546 16.2073 1.24313C18.0081 3.2706 19 5.88254 19 8.597C19.0004 11.2087 18.0731 13.7459 16.3889 15.7409Z" fill="url(#paint0_linear)"/>
<defs>
<linearGradient id="paint0_linear" x1="9.50003" y1="0.953278" x2="9.50003" y2="21.0783" gradientUnits="userSpaceOnUse">
<stop stop-color="#59F37B"/>
<stop offset="1" stop-color="#08D8F4"/>
</linearGradient>
</defs>
</svg>
