<svg width="26" height="26" viewBox="0 0 26 26" fill="none" xmlns="http://www.w3.org/2000/svg">
<path d="M6.23284 14.6867C6.22779 14.7207 6.20346 14.7451 6.17182 14.7451C6.14019 14.7451 6.11586 14.7207 6.11099 14.6859L6 13.8553L6.11099 13.0107C6.11567 12.9755 6.14001 12.9512 6.17182 12.9512C6.20327 12.9512 6.2276 12.9755 6.23284 13.0107L6.36499 13.8562L6.23284 14.6867ZM6.79829 15.1913C6.79305 15.2274 6.76685 15.2527 6.73446 15.2527C6.70302 15.2527 6.67551 15.2274 6.6712 15.1913L6.52184 13.8551L6.6712 12.4889C6.67569 12.4537 6.70302 12.4275 6.73446 12.4275C6.76685 12.4275 6.79305 12.4531 6.79829 12.4889L6.96824 13.8551L6.79829 15.1913ZM7.40847 15.4176C7.40417 15.461 7.3716 15.4919 7.33248 15.4919C7.29205 15.4919 7.26004 15.461 7.25611 15.4176L7.11442 13.8562L7.25611 12.2355C7.25967 12.1915 7.29205 12.16 7.33248 12.16C7.3716 12.16 7.40398 12.1915 7.40847 12.2355L7.56925 13.8562L7.40847 15.4176ZM8.02464 15.4672C8.02015 15.517 7.98122 15.5546 7.93499 15.5546C7.88763 15.5546 7.84889 15.517 7.84496 15.4672L7.71113 13.8562L7.84496 12.1909C7.84889 12.1408 7.88763 12.1031 7.93499 12.1031C7.98122 12.1031 8.02015 12.1408 8.02464 12.1909L8.17644 13.8562L8.02464 15.4672ZM8.64418 15.4801C8.641 15.5379 8.59589 15.5808 8.54255 15.5808C8.48752 15.5808 8.44391 15.5379 8.44017 15.4801L8.31364 13.856L8.44017 12.3111C8.4441 12.2536 8.48752 12.2108 8.54255 12.2108C8.59683 12.2108 8.641 12.2536 8.64418 12.3103L8.78756 13.856L8.64418 15.4801ZM9.26971 15.481V15.4801C9.26597 15.5441 9.21525 15.5946 9.15423 15.5946C9.09302 15.5946 9.0423 15.5439 9.03874 15.481L8.92064 13.8569L9.03874 11.3434C9.0423 11.2794 9.09302 11.2288 9.15423 11.2288C9.21543 11.2288 9.26616 11.2796 9.26971 11.3425L9.40354 13.8569L9.26971 15.481ZM9.89057 15.4801V15.4792C9.88682 15.5499 9.83086 15.6062 9.7616 15.6062C9.69366 15.6062 9.63751 15.5499 9.63414 15.4792L9.52258 13.8655L9.63414 10.777C9.63751 10.7063 9.69366 10.6503 9.7616 10.6503C9.83086 10.6503 9.88682 10.7063 9.89057 10.777L10.0162 13.8655L9.89057 15.4801ZM10.5346 15.4552V15.4543C10.5318 15.5331 10.4699 15.5943 10.3937 15.5943C10.3175 15.5943 10.2556 15.5331 10.2527 15.4552L10.1492 13.8581C10.1492 13.8581 10.2527 10.5122 10.2527 10.5112C10.2557 10.4334 10.3175 10.371 10.3937 10.371C10.4699 10.371 10.532 10.4334 10.5346 10.5112L10.6516 13.8581L10.5346 15.4552ZM11.1749 15.4445C11.1719 15.5303 11.1048 15.5975 11.0211 15.5975C10.9372 15.5975 10.87 15.5303 10.867 15.4453L10.7705 13.8577L10.867 10.3991C10.87 10.313 10.9372 10.246 11.0211 10.246C11.1048 10.246 11.1721 10.313 11.1749 10.3991L11.2822 13.8577L11.1749 15.4445ZM11.8194 15.4305V15.4296C11.8164 15.5222 11.7439 15.5958 11.652 15.5958C11.5615 15.5958 11.4875 15.5222 11.4858 15.4305L11.3971 13.8581L11.4849 10.4878C11.4875 10.3939 11.5613 10.3212 11.652 10.3212C11.7439 10.3212 11.8164 10.3939 11.8194 10.4878L11.919 13.8581L11.8194 15.4305ZM12.4691 15.4211V15.4198C12.4676 15.5207 12.3878 15.5984 12.2894 15.5984C12.1902 15.5984 12.1116 15.5207 12.1086 15.4211L12.0284 13.8579L12.1087 10.611C12.1117 10.5103 12.1904 10.4315 12.2896 10.4315C12.388 10.4315 12.4677 10.5103 12.4692 10.611L12.56 13.8588L12.4691 15.4211ZM13.1318 15.2562L13.1238 15.4093C13.1228 15.4627 13.1004 15.511 13.0661 15.5458C13.0309 15.58 12.9827 15.6019 12.9316 15.6019C12.872 15.6019 12.8196 15.5746 12.7837 15.5316C12.7571 15.5003 12.7406 15.4599 12.7388 15.4174C12.7382 15.4155 12.7382 15.4131 12.7382 15.4105C12.7382 15.4105 12.6643 13.8596 12.6643 13.8569L12.7373 10.0306L12.7382 9.99389C12.7388 9.92688 12.7743 9.86717 12.8275 9.83292C12.8572 9.81308 12.8924 9.80147 12.9317 9.80147C12.9703 9.80147 13.0068 9.81345 13.0373 9.8346C13.0892 9.86923 13.123 9.92744 13.124 9.99407L13.2052 13.8588L13.1318 15.2562ZM13.7759 15.3893V15.3874C13.7746 15.5005 13.6819 15.5926 13.57 15.5926C13.4577 15.5926 13.3652 15.5005 13.3641 15.3884L13.3216 14.6341L13.2799 13.8596L13.3641 9.66577V9.64462C13.3643 9.58098 13.3942 9.52408 13.4405 9.48571C13.4759 9.4567 13.5213 9.43911 13.57 9.43911C13.6087 9.43911 13.6447 9.44978 13.6754 9.46774C13.734 9.50443 13.775 9.56938 13.7768 9.64369L13.868 13.8594L13.7759 15.3893ZM19.3411 15.5967C19.3411 15.5967 14.1596 15.5967 14.1542 15.5967C14.0422 15.5853 13.9537 15.4962 13.9518 15.3815V9.4436C13.9537 9.33429 13.9913 9.27795 14.1321 9.22386C14.4954 9.0831 14.9068 9 15.3296 9C17.0544 9 18.4677 10.3231 18.6177 12.0086C18.8397 11.916 19.0849 11.8632 19.3411 11.8632C20.3739 11.8632 21.2113 12.701 21.2113 13.7345C21.2113 14.7679 20.3739 15.5967 19.3411 15.5967Z" fill="#A0A0A0"/>
<circle cx="13" cy="13" r="12.75" stroke="#A0A0A0" stroke-width="0.5"/>
</svg>
