<svg width="26" height="26" viewBox="0 0 26 26" fill="none" xmlns="http://www.w3.org/2000/svg">
<path d="M17.2864 16.6025C13.2925 14.7567 7.70211 15.5731 7.46615 15.6087C6.94002 15.6882 6.57792 16.179 6.65743 16.7051C6.73694 17.2313 7.22813 17.593 7.75387 17.5138C7.80602 17.5059 13.0032 16.7455 16.4781 18.3515C16.6089 18.412 16.7464 18.4406 16.8817 18.4406C17.2457 18.4405 17.5941 18.2333 17.7568 17.8812C17.9799 17.3982 17.7694 16.8257 17.2864 16.6025Z" fill="#A0A0A0"/>
<path d="M18.4094 13.133C13.8735 11.0368 7.51274 11.9658 7.24415 12.0062C6.71828 12.0857 6.35644 12.5763 6.43569 13.1022C6.51482 13.6282 7.00575 13.9905 7.53149 13.9115C7.5916 13.9024 13.595 13.0307 17.6011 14.8821C17.7321 14.9426 17.8694 14.9712 18.0047 14.9712C18.3687 14.9711 18.7171 14.7639 18.8799 14.4117C19.103 13.9287 18.8924 13.3562 18.4094 13.133Z" fill="#A0A0A0"/>
<path d="M19.1637 9.50869C14.1534 7.19312 7.11645 8.22059 6.81935 8.26542C6.29348 8.34493 5.93164 8.83548 6.01089 9.36136C6.09014 9.88723 6.5812 10.2501 7.10669 10.1706C7.17386 10.1604 13.8748 9.18705 18.3553 11.2577C18.4861 11.3182 18.6237 11.3468 18.7589 11.3468C19.1229 11.3468 19.4713 11.1395 19.634 10.7874C19.8573 10.3043 19.6466 9.73194 19.1637 9.50869Z" fill="#A0A0A0"/>
<circle cx="13" cy="13" r="12.75" stroke="#A0A0A0" stroke-width="0.5"/>
</svg>
