<svg width="16" height="10" viewBox="0 0 16 10" fill="none" xmlns="http://www.w3.org/2000/svg">
<path d="M7.56094 9.13849L0.180933 1.73802C-0.0607219 1.49555 -0.0603157 1.10299 0.182183 0.86093C0.424651 0.619056 0.817431 0.619681 1.05927 0.86218L8.00003 7.82215L14.9407 0.86193C15.1826 0.619463 15.5752 0.618838 15.8177 0.86068C15.9392 0.982024 16 1.14099 16 1.29996C16 1.45852 15.9396 1.61686 15.8189 1.73799L8.43909 9.13849C8.3229 9.25527 8.16478 9.3208 8.00003 9.3208C7.83528 9.3208 7.67734 9.25508 7.56094 9.13849Z" fill="black"/>
<path d="M7.56094 9.13849L0.180933 1.73802C-0.0607219 1.49555 -0.0603157 1.10299 0.182183 0.86093C0.424651 0.619056 0.817431 0.619681 1.05927 0.86218L8.00003 7.82215L14.9407 0.86193C15.1826 0.619463 15.5752 0.618838 15.8177 0.86068C15.9392 0.982024 16 1.14099 16 1.29996C16 1.45852 15.9396 1.61686 15.8189 1.73799L8.43909 9.13849C8.3229 9.25527 8.16478 9.3208 8.00003 9.3208C7.83528 9.3208 7.67734 9.25508 7.56094 9.13849Z" fill="url(#paint0_linear)"/>
<defs>
<linearGradient id="paint0_linear" x1="-1.88858e-07" y1="5.00025" x2="16" y2="5.00025" gradientUnits="userSpaceOnUse">
<stop stop-color="#59F37B"/>
<stop offset="1" stop-color="#08D8F4"/>
</linearGradient>
</defs>
</svg>
