<svg width="33" height="33" viewBox="0 0 33 33" fill="none" xmlns="http://www.w3.org/2000/svg">
<g clip-path="url(#clip0)">
<path d="M16.4988 28.4878C16.4961 28.4878 16.493 28.4878 16.49 28.4878C15.4943 28.481 6.69137 28.4007 4.19733 27.7262C2.45432 27.2577 1.0784 25.8833 0.608592 24.14C-0.0439971 21.69 -0.00245493 16.9731 0.00207693 16.5964C-0.00220316 16.2216 -0.0442488 11.4656 0.606578 8.9955C0.607333 8.99323 0.607837 8.99072 0.608592 8.98845C1.07311 7.26508 2.48 5.84812 4.19305 5.37831C4.19733 5.37705 4.20186 5.37605 4.20614 5.37479C6.67198 4.72673 15.4923 4.64742 16.49 4.64062H16.5079C17.5062 4.64742 26.3325 4.72774 28.8036 5.40324C30.5421 5.87052 31.917 7.24318 32.3881 8.98417C33.0651 11.4561 33.0024 16.2223 32.9956 16.6246C33.0004 17.0209 33.0399 21.6956 32.3911 24.1579C32.3906 24.1604 32.3898 24.1627 32.3893 24.1649C31.9193 25.9082 30.5436 27.2826 28.7986 27.7516C28.7963 27.7524 28.7938 27.7529 28.7915 27.7537C26.3259 28.4015 17.5054 28.4808 16.5079 28.4878C16.5049 28.4878 16.5019 28.4878 16.4988 28.4878ZM3.0986 9.65665C2.52557 11.837 2.5797 16.5322 2.58021 16.5796V16.6136C2.56309 17.9157 2.62326 21.6867 3.09885 23.4728C3.32947 24.3281 4.008 25.0056 4.86855 25.237C6.70874 25.7347 13.8784 25.8913 16.4988 25.9097C19.1261 25.8913 26.3063 25.739 28.1329 25.2611C28.9907 25.029 29.6669 24.3537 29.8991 23.4975C30.3752 21.6852 30.4348 17.9326 30.4175 16.6387C30.4175 16.6252 30.4175 16.6116 30.4177 16.598C30.4414 15.2802 30.3948 11.4651 29.9013 9.6647C29.9008 9.66294 29.9003 9.66118 29.9001 9.65942C29.6684 8.80038 28.9897 8.12286 28.1291 7.89149C26.3068 7.39323 19.1256 7.23713 16.4988 7.21875C13.8734 7.23713 6.70018 7.3892 4.86804 7.86656C4.02386 8.10071 3.32998 8.80239 3.0986 9.65665ZM31.1446 23.8296H31.1453H31.1446ZM13.213 21.7847V11.3435L22.2364 16.5642L13.213 21.7847Z" fill="#A0A0A0"/>
</g>
<defs>
<clipPath id="clip0">
<rect width="33" height="33" fill="white"/>
</clipPath>
</defs>
</svg>
