<svg width="32" height="32" viewBox="0 0 32 32" fill="none" xmlns="http://www.w3.org/2000/svg">
<path d="M30.8571 16C30.8571 24.2054 24.2054 30.8571 16 30.8571C7.79463 30.8571 1.14286 24.2054 1.14286 16C1.14286 7.79463 7.79463 1.14286 16 1.14286C24.2054 1.14286 30.8571 7.79463 30.8571 16Z" stroke="#A0A0A0" stroke-width="2.28571"/>
<path d="M6.16934 19.1779C6.16261 19.2234 6.13016 19.2558 6.08799 19.2558C6.04581 19.2558 6.01337 19.2234 6.00688 19.1769L5.85889 18.0694L6.00688 16.9433C6.01312 16.8964 6.04556 16.864 6.08799 16.864C6.12991 16.864 6.16236 16.8964 6.16934 16.9433L6.34554 18.0706L6.16934 19.1779ZM6.92327 19.8508C6.91629 19.8989 6.88135 19.9326 6.83817 19.9326C6.79625 19.9326 6.75956 19.8989 6.75382 19.8508L6.55467 18.0691L6.75382 16.2476C6.75981 16.2006 6.79625 16.1657 6.83817 16.1657C6.88135 16.1657 6.91629 16.1999 6.92327 16.2476L7.14988 18.0691L6.92327 19.8508ZM7.73685 20.1525C7.73111 20.2104 7.68769 20.2516 7.63553 20.2516C7.58162 20.2516 7.53895 20.2104 7.53371 20.1525L7.34479 18.0706L7.53371 15.9097C7.53845 15.851 7.58162 15.8091 7.63553 15.8091C7.68769 15.8091 7.73086 15.851 7.73685 15.9097L7.95123 18.0706L7.73685 20.1525ZM8.55841 20.2186C8.55242 20.285 8.50051 20.3352 8.43887 20.3352C8.37573 20.3352 8.32407 20.285 8.31883 20.2186L8.14039 18.0706L8.31883 15.8503C8.32407 15.7834 8.37573 15.7332 8.43887 15.7332C8.50051 15.7332 8.55242 15.7834 8.55841 15.8503L8.76081 18.0706L8.55841 20.2186ZM9.38447 20.2358C9.38022 20.3129 9.32008 20.3701 9.24895 20.3701C9.17558 20.3701 9.11743 20.3129 9.11244 20.2358L8.94374 18.0704L9.11244 16.0105C9.11768 15.9339 9.17558 15.8767 9.24895 15.8767C9.32133 15.8767 9.38022 15.9339 9.38447 16.0095L9.57563 18.0704L9.38447 20.2358ZM10.2185 20.2371V20.2358C10.2135 20.3212 10.1459 20.3886 10.0645 20.3886C9.98292 20.3886 9.91529 20.3209 9.91055 20.2371L9.75307 18.0716L9.91055 14.7202C9.91529 14.6349 9.98292 14.5675 10.0645 14.5675C10.1461 14.5675 10.2138 14.6351 10.2185 14.719L10.3969 18.0716L10.2185 20.2371ZM11.0463 20.2358V20.2346C11.0413 20.3289 10.9667 20.404 10.8744 20.404C10.7838 20.404 10.7089 20.3289 10.7044 20.2346L10.5557 18.0831L10.7044 13.9651C10.7089 13.8707 10.7838 13.7961 10.8744 13.7961C10.9667 13.7961 11.0413 13.8707 11.0463 13.9651L11.2138 18.0831L11.0463 20.2358ZM11.9051 20.2026V20.2014C11.9013 20.3065 11.8187 20.3881 11.7171 20.3881C11.6156 20.3881 11.533 20.3065 11.5292 20.2026L11.3912 18.0731C11.3912 18.0731 11.5292 13.6119 11.5292 13.6107C11.5332 13.5069 11.6156 13.4238 11.7171 13.4238C11.8187 13.4238 11.9016 13.5069 11.9051 13.6107L12.061 18.0731L11.9051 20.2026ZM12.7588 20.1884C12.7548 20.3027 12.6652 20.3923 12.5537 20.3923C12.4419 20.3923 12.3523 20.3027 12.3483 20.1894L12.2195 18.0726L12.3483 13.4612C12.3523 13.3464 12.4419 13.257 12.5537 13.257C12.6652 13.257 12.7551 13.3464 12.7588 13.4612L12.9018 18.0726L12.7588 20.1884ZM13.6181 20.1697V20.1684C13.6141 20.292 13.5175 20.3901 13.3949 20.3901C13.2742 20.3901 13.1756 20.292 13.1733 20.1697L13.055 18.0731L13.1721 13.5795C13.1756 13.4542 13.2739 13.3574 13.3949 13.3574C13.5175 13.3574 13.6141 13.4542 13.6181 13.5795L13.7508 18.0731L13.6181 20.1697ZM14.4843 20.1572V20.1555C14.4823 20.29 14.376 20.3936 14.2447 20.3936C14.1124 20.3936 14.0076 20.29 14.0036 20.1572L13.8968 18.0729L14.0039 13.7437C14.0079 13.6094 14.1127 13.5044 14.245 13.5044C14.3762 13.5044 14.4825 13.6094 14.4845 13.7437L14.6056 18.0741L14.4843 20.1572ZM15.368 19.9374L15.3573 20.1415C15.356 20.2126 15.3261 20.277 15.2804 20.3234C15.2335 20.3691 15.1691 20.3983 15.101 20.3983C15.0216 20.3983 14.9517 20.3619 14.9038 20.3045C14.8684 20.2628 14.8464 20.2089 14.8439 20.1522C14.8432 20.1497 14.8432 20.1465 14.8432 20.143C14.8432 20.143 14.7446 18.0751 14.7446 18.0716L14.8419 12.9698L14.8432 12.9209C14.8439 12.8315 14.8913 12.7519 14.9622 12.7063C15.0019 12.6798 15.0488 12.6643 15.1012 12.6643C15.1526 12.6643 15.2013 12.6803 15.242 12.7085C15.3111 12.7547 15.3563 12.8323 15.3575 12.9211L15.4658 18.0741L15.368 19.9374ZM16.2267 20.1148V20.1123C16.225 20.263 16.1015 20.3858 15.9522 20.3858C15.8025 20.3858 15.6792 20.263 15.6777 20.1135L15.6211 19.1078L15.5654 18.0751L15.6777 12.4834V12.4552C15.678 12.3703 15.7179 12.2945 15.7795 12.2433C15.8267 12.2046 15.8873 12.1812 15.9522 12.1812C16.0039 12.1812 16.0518 12.1954 16.0927 12.2194C16.1708 12.2683 16.2255 12.3549 16.228 12.454L16.3495 18.0749L16.2267 20.1148ZM23.647 20.3913C23.647 20.3913 16.7383 20.3913 16.7311 20.3913C16.5819 20.3761 16.4638 20.2573 16.4613 20.1043V12.1872C16.4638 12.0414 16.514 11.9663 16.7017 11.8942C17.1861 11.7065 17.7346 11.5957 18.2984 11.5957C20.5981 11.5957 22.4825 13.3599 22.6824 15.6072C22.9784 15.4836 23.3054 15.4133 23.647 15.4133C25.0241 15.4133 26.1406 16.5303 26.1406 17.9084C26.1406 19.2862 25.0241 20.3913 23.647 20.3913Z" fill="#A0A0A0"/>
</svg>
