<svg width="33" height="33" viewBox="0 0 33 33" fill="none" xmlns="http://www.w3.org/2000/svg">
<path d="M22.7613 21.3639C17.2696 18.8259 9.58283 19.9485 9.25838 19.9974C8.53496 20.1068 8.03708 20.7816 8.1464 21.5051C8.25573 22.2285 8.93111 22.7259 9.654 22.6171C9.72571 22.6061 16.8718 21.5605 21.6498 23.7688C21.8296 23.852 22.0188 23.8914 22.2048 23.8914C22.7053 23.8912 23.1843 23.6063 23.4081 23.1222C23.7148 22.4581 23.4254 21.6709 22.7613 21.3639Z" fill="#A0A0A0"/>
<path d="M24.305 16.5938C18.0682 13.7115 9.32208 14.9888 8.95277 15.0445C8.2297 15.1538 7.73217 15.8283 7.84115 16.5514C7.94994 17.2746 8.62497 17.7729 9.34786 17.6642C9.43052 17.6517 17.6852 16.4532 23.1936 18.9988C23.3737 19.082 23.5625 19.1213 23.7485 19.1213C24.249 19.1212 24.728 18.8363 24.952 18.352C25.2588 17.6879 24.9691 16.9007 24.305 16.5938Z" fill="#A0A0A0"/>
<path d="M25.3427 11.61C18.4536 8.42606 8.77779 9.83884 8.36928 9.90048C7.64621 10.0098 7.14868 10.6843 7.25765 11.4074C7.36662 12.1305 8.04183 12.6294 8.76437 12.5201C8.85674 12.5061 18.0705 11.1677 24.2312 14.0148C24.411 14.098 24.6002 14.1374 24.7862 14.1374C25.2867 14.1374 25.7657 13.8523 25.9895 13.3682C26.2964 12.7039 26.0068 11.9169 25.3427 11.61Z" fill="#A0A0A0"/>
<path d="M16.5001 0C7.40184 0 0 7.40174 0 16.4996C0 25.5979 7.40184 33 16.5001 33C25.5982 33 33 25.5979 33 16.4996C33 7.40174 25.5982 0 16.5001 0ZM16.5001 30.3507C8.86264 30.3507 2.64925 24.1373 2.64925 16.4996C2.64925 8.86238 8.86264 2.64911 16.5001 2.64911C24.1374 2.64911 30.3507 8.86238 30.3507 16.4996C30.3507 24.1373 24.1374 30.3507 16.5001 30.3507Z" fill="#A0A0A0"/>
</svg>
