<svg width="19" height="17" viewBox="0 0 19 17" fill="none" xmlns="http://www.w3.org/2000/svg">
<path d="M9.50572 14.4227C9.50572 14.7574 9.31232 15.0615 9.00967 15.2034C8.89266 15.2588 8.76727 15.2855 8.64269 15.2855C8.44542 15.2855 8.24998 15.2177 8.09212 15.0868L3.3751 11.1781H0.862819C0.38638 11.1785 0 10.7919 0 10.3155V6.87787C0 6.40123 0.38638 6.01485 0.862819 6.01485H3.37531L8.09233 2.10612C8.35005 1.89251 8.70743 1.84697 9.00988 1.98992C9.31232 2.13185 9.50592 2.43614 9.50592 2.77064L9.50572 14.4227ZM12.8216 13.0744C12.8006 13.0759 12.7803 13.0767 12.7595 13.0767C12.5316 13.0767 12.3119 12.9866 12.1495 12.8241L12.0341 12.7083C11.7315 12.4062 11.696 11.9278 11.9508 11.5843C12.597 10.7131 12.938 9.68035 12.938 8.59697C12.938 7.43171 12.5508 6.33874 11.8181 5.43609C11.5391 5.09301 11.5648 4.59472 11.8775 4.28226L11.9927 4.16688C12.165 3.99452 12.396 3.90058 12.646 3.91549C12.8894 3.92774 13.1167 4.04231 13.2711 4.231C14.2875 5.47469 14.8244 6.98468 14.8244 8.59718C14.8244 10.099 14.3496 11.5285 13.451 12.7305C13.3009 12.9309 13.0714 13.0567 12.8216 13.0744ZM16.3889 15.7409C16.2329 15.9253 16.0072 16.036 15.7656 16.0462C15.7538 16.0466 15.7417 16.047 15.7295 16.047C15.5009 16.047 15.2816 15.9568 15.1193 15.7944L15.0059 15.6811C14.6892 15.3645 14.6677 14.8583 14.9557 14.5156C16.3472 12.8606 17.1138 10.7588 17.1138 8.59697C17.1138 6.34833 16.2931 4.18363 14.8033 2.50169C14.5013 2.16024 14.5166 1.64336 14.838 1.3207L14.9512 1.20736C15.119 1.03867 15.3372 0.945756 15.5873 0.95372C15.8248 0.960459 16.0495 1.06543 16.2073 1.2431C18.0081 3.27057 19 5.88251 19 8.59697C19.0004 11.2087 18.0731 13.7459 16.3889 15.7409Z" fill="white"/>
<path d="M9.50572 14.4227C9.50572 14.7574 9.31232 15.0615 9.00967 15.2034C8.89266 15.2588 8.76727 15.2855 8.64269 15.2855C8.44542 15.2855 8.24998 15.2177 8.09212 15.0868L3.3751 11.1781H0.862819C0.38638 11.1785 0 10.7919 0 10.3155V6.87787C0 6.40123 0.38638 6.01485 0.862819 6.01485H3.37531L8.09233 2.10612C8.35005 1.89251 8.70743 1.84697 9.00988 1.98992C9.31232 2.13185 9.50592 2.43614 9.50592 2.77064L9.50572 14.4227ZM12.8216 13.0744C12.8006 13.0759 12.7803 13.0767 12.7595 13.0767C12.5316 13.0767 12.3119 12.9866 12.1495 12.8241L12.0341 12.7083C11.7315 12.4062 11.696 11.9278 11.9508 11.5843C12.597 10.7131 12.938 9.68035 12.938 8.59697C12.938 7.43171 12.5508 6.33874 11.8181 5.43609C11.5391 5.09301 11.5648 4.59472 11.8775 4.28226L11.9927 4.16688C12.165 3.99452 12.396 3.90058 12.646 3.91549C12.8894 3.92774 13.1167 4.04231 13.2711 4.231C14.2875 5.47469 14.8244 6.98468 14.8244 8.59718C14.8244 10.099 14.3496 11.5285 13.451 12.7305C13.3009 12.9309 13.0714 13.0567 12.8216 13.0744ZM16.3889 15.7409C16.2329 15.9253 16.0072 16.036 15.7656 16.0462C15.7538 16.0466 15.7417 16.047 15.7295 16.047C15.5009 16.047 15.2816 15.9568 15.1193 15.7944L15.0059 15.6811C14.6892 15.3645 14.6677 14.8583 14.9557 14.5156C16.3472 12.8606 17.1138 10.7588 17.1138 8.59697C17.1138 6.34833 16.2931 4.18363 14.8033 2.50169C14.5013 2.16024 14.5166 1.64336 14.838 1.3207L14.9512 1.20736C15.119 1.03867 15.3372 0.945756 15.5873 0.95372C15.8248 0.960459 16.0495 1.06543 16.2073 1.2431C18.0081 3.27057 19 5.88251 19 8.59697C19.0004 11.2087 18.0731 13.7459 16.3889 15.7409Z" fill="white"/>
<path d="M9.50572 14.4227C9.50572 14.7574 9.31232 15.0615 9.00967 15.2034C8.89266 15.2588 8.76727 15.2855 8.64269 15.2855C8.44542 15.2855 8.24998 15.2177 8.09212 15.0868L3.3751 11.1781H0.862819C0.38638 11.1785 0 10.7919 0 10.3155V6.87787C0 6.40123 0.38638 6.01485 0.862819 6.01485H3.37531L8.09233 2.10612C8.35005 1.89251 8.70743 1.84697 9.00988 1.98992C9.31232 2.13185 9.50592 2.43614 9.50592 2.77064L9.50572 14.4227ZM12.8216 13.0744C12.8006 13.0759 12.7803 13.0767 12.7595 13.0767C12.5316 13.0767 12.3119 12.9866 12.1495 12.8241L12.0341 12.7083C11.7315 12.4062 11.696 11.9278 11.9508 11.5843C12.597 10.7131 12.938 9.68035 12.938 8.59697C12.938 7.43171 12.5508 6.33874 11.8181 5.43609C11.5391 5.09301 11.5648 4.59472 11.8775 4.28226L11.9927 4.16688C12.165 3.99452 12.396 3.90058 12.646 3.91549C12.8894 3.92774 13.1167 4.04231 13.2711 4.231C14.2875 5.47469 14.8244 6.98468 14.8244 8.59718C14.8244 10.099 14.3496 11.5285 13.451 12.7305C13.3009 12.9309 13.0714 13.0567 12.8216 13.0744ZM16.3889 15.7409C16.2329 15.9253 16.0072 16.036 15.7656 16.0462C15.7538 16.0466 15.7417 16.047 15.7295 16.047C15.5009 16.047 15.2816 15.9568 15.1193 15.7944L15.0059 15.6811C14.6892 15.3645 14.6677 14.8583 14.9557 14.5156C16.3472 12.8606 17.1138 10.7588 17.1138 8.59697C17.1138 6.34833 16.2931 4.18363 14.8033 2.50169C14.5013 2.16024 14.5166 1.64336 14.838 1.3207L14.9512 1.20736C15.119 1.03867 15.3372 0.945756 15.5873 0.95372C15.8248 0.960459 16.0495 1.06543 16.2073 1.2431C18.0081 3.27057 19 5.88251 19 8.59697C19.0004 11.2087 18.0731 13.7459 16.3889 15.7409Z" fill="white"/>
</svg>
